<svg width="149" height="58" viewBox="0 0 149 58" fill="none" xmlns="http://www.w3.org/2000/svg">
<path d="M39.0309 49.1049C39.2965 49.1049 39.4581 49.0125 39.5101 48.8278C39.5627 48.6438 39.6425 48.4687 39.7468 48.3083L39.8276 48.3891C39.8401 48.939 39.6559 49.4753 39.308 49.9015C38.9563 50.3364 38.5254 50.7007 38.038 50.9751C37.5291 51.2703 36.9782 51.4863 36.4043 51.6158C35.8821 51.7403 35.3477 51.8061 34.8109 51.8121C33.9142 51.8359 33.027 51.6239 32.2378 51.1975C31.4486 50.7711 30.7852 50.145 30.3138 49.382C29.1556 47.6141 28.3064 45.6622 27.8025 43.6097C27.2213 41.3908 26.8216 39.1283 26.6075 36.8445C26.3997 34.5664 26.2669 32.7616 26.2092 31.4301L23.3516 32.5442C22.3971 32.929 21.4715 33.3273 20.5748 33.7391C20.3631 35.3322 20.0572 37.1639 19.6569 39.2343C19.2498 41.3549 18.7334 43.453 18.1098 45.5203C17.5065 47.5591 16.7341 49.544 15.8006 51.4542C15.0299 53.0958 13.9811 54.5917 12.7005 55.8758C11.3789 57.155 9.60982 57.8676 7.77039 57.8615C6.8083 57.8584 5.85441 57.6844 4.95319 57.3477C4.04367 57.0072 3.20138 56.509 2.46504 55.8758C1.72582 55.2417 1.11786 54.4691 0.675426 53.6015C0.227697 52.7344 -0.00401396 51.772 -1.00136e-05 50.7962C0.114005 50.9689 0.183425 51.1673 0.202043 51.3734C0.236814 51.5749 0.303049 51.7697 0.398324 51.9506C1.01745 53.5046 2.04704 54.8613 3.37717 55.8758C4.74119 56.8129 6.37051 57.2865 8.0244 57.2265C9.36983 57.2565 10.6763 56.7736 11.6787 55.8758C12.725 54.9165 13.598 53.7839 14.2592 52.5279C14.9639 51.2051 15.5437 49.8195 15.9911 48.3891C16.4414 46.9576 16.7935 45.6819 17.0591 44.5679C16.7416 45.4683 16.3201 46.5478 15.789 47.7888C15.2695 49.0211 14.6457 50.2068 13.9244 51.333C13.2491 52.4044 12.4049 53.3595 11.4247 54.1614C10.6532 54.801 9.70927 55.1972 8.71242 55.3C7.71557 55.4027 6.71064 55.2074 5.8249 54.7387C5.1325 54.3381 4.52624 53.8045 4.04106 53.1686C3.53467 52.523 3.14402 51.7945 2.88647 51.0155C2.62577 50.2199 2.49326 49.388 2.49391 48.5508C2.50347 46.7283 2.98264 44.9391 3.88519 43.3557C4.82736 41.6605 6.00306 40.106 7.37783 38.7379C8.77928 37.3363 10.3102 36.0704 11.95 34.957C13.4519 33.9262 15.0197 32.9948 16.6434 32.169C16.9032 31.0145 17.2207 29.8601 17.5151 28.7056C17.8096 27.5512 18.1213 26.3967 18.3926 25.2422C18.916 23.118 19.4722 21.0208 20.061 18.9504C20.6499 16.8801 21.2271 14.8098 21.7929 12.7395C22.0084 11.889 22.3279 10.7884 22.7512 9.4377C23.1736 8.08304 23.7045 6.76461 24.3388 5.49522C24.9276 4.28995 25.6901 3.17753 26.6018 2.19347C26.9681 1.76365 27.4268 1.42207 27.9436 1.19419C28.4604 0.966317 29.0219 0.858024 29.5864 0.87739C29.0275 1.00063 28.5078 1.26043 28.0739 1.63356C27.5821 2.04441 27.1281 2.49838 26.7172 2.99005C26.2959 3.4917 25.9101 4.02211 25.5626 4.57743C25.2521 5.07643 24.9744 5.59511 24.7313 6.13018C24.146 7.40252 23.6671 8.72119 23.2996 10.0727C22.9244 11.4291 22.5549 12.7972 22.1797 14.1768C21.435 16.7743 20.7364 19.3718 20.0726 21.9347C19.4087 24.4976 18.7563 27.1298 18.1213 29.7793C18.7409 27.6281 19.3471 25.5116 19.9398 23.4297C20.5325 21.3479 21.1406 19.2314 21.764 17.0802C22.1835 15.6987 22.5934 14.3326 22.9937 12.9819C23.3817 11.6463 23.9019 10.3526 24.5466 9.12022C24.9104 8.33814 25.3211 7.57867 25.7762 6.84594C26.165 6.10369 26.7226 5.46309 27.4042 4.97572C27.8727 4.65906 28.4263 4.492 28.9918 4.49662C29.7427 4.51968 30.478 4.71731 31.1393 5.07385C31.1393 8.53722 31.2047 11.9602 31.3356 15.3428C31.4664 18.7253 31.7185 22.1502 32.0919 25.6174L34.7994 24.9017C33.1021 25.4866 31.1932 26.2024 29.0726 27.049C26.952 27.8956 24.8352 28.8114 22.7223 29.7966C20.6017 30.7779 18.5639 31.7996 16.6088 32.8617C14.8346 33.8104 13.1413 34.9031 11.5459 36.1288C12.077 35.8055 12.9487 35.3437 14.1668 34.7319C15.3849 34.12 16.7762 33.4447 18.3349 32.7058C19.8936 31.967 21.5389 31.205 23.2592 30.4315C24.9796 29.658 26.6133 28.948 28.1489 28.2842C29.6845 27.6204 31.0354 27.0894 32.19 26.6911C32.9571 26.3922 33.761 26.198 34.58 26.1139C34.6839 26.1139 34.7763 26.2293 34.8571 26.4717C34.944 26.7433 34.9983 27.0243 35.0187 27.3087C35.0187 27.6262 35.0707 27.9321 35.0938 28.2207C35.1169 28.5094 35.1342 28.7114 35.1342 28.798C35.1564 28.9704 35.1394 29.1456 35.0844 29.3105C35.0294 29.4754 34.9379 29.6258 34.8167 29.7504C34.5032 29.6881 34.1837 29.661 33.8642 29.6696C33.4642 29.6607 33.0643 29.6878 32.6691 29.7504C32.7211 30.2295 32.8423 31.0376 33.0271 32.1805C33.2118 33.3234 33.437 34.6107 33.7025 36.0422C33.9681 37.4737 34.2798 38.963 34.6608 40.4984C34.9986 41.9293 35.4227 43.3384 35.9309 44.718C36.3228 45.81 36.8156 46.8632 37.403 47.8639C37.9052 48.6951 38.4479 49.1049 39.0309 49.1049ZM6.52343 51.7313C7.89932 51.4075 9.12218 50.6209 9.9872 49.5032C11.059 48.2116 11.9701 46.7947 12.7005 45.2836C13.4901 43.7061 14.1709 42.0764 14.7383 40.4061C15.3156 38.7609 15.7255 37.3756 16.043 36.2615C14.9346 36.9042 13.7454 37.6738 12.4753 38.5705C11.2326 39.4602 10.0732 40.461 9.01157 41.5605C7.95337 42.6248 7.05675 43.8383 6.35024 45.1624C5.67156 46.4239 5.31651 47.8341 5.31688 49.2665C5.31923 49.7506 5.3872 50.2322 5.51894 50.6981C5.58859 50.9395 5.71668 51.1601 5.89188 51.3403C6.06708 51.5206 6.28399 51.6548 6.52343 51.7313ZM25.1816 31.1127C23.5883 31.7476 21.8006 32.5038 19.8185 33.3812C17.8121 34.2673 15.8629 35.2774 13.9821 36.4058C12.1445 37.4971 10.4263 38.7778 8.8557 40.2271C7.42069 41.5273 6.31808 43.1524 5.64017 44.9662C6.53685 43.2479 7.73333 41.7036 9.17322 40.4061C10.7223 38.9935 12.3977 37.7259 14.1784 36.6194C16.0004 35.4822 17.8833 34.4455 19.8185 33.5139C21.7525 32.6135 23.5363 31.7996 25.1816 31.1127ZM25.9783 10.9674C24.9206 14.047 24.0321 17.1822 23.317 20.3589C22.605 23.5452 21.8776 26.7315 21.1348 29.9178C21.9257 29.5484 22.7223 29.1847 23.519 28.8441C24.3157 28.5036 25.1297 28.163 25.9783 27.8455C25.9263 26.3043 25.8859 24.7689 25.8628 23.2277C25.8397 21.6865 25.8224 20.1511 25.8224 18.6099V14.7886C25.8166 13.5129 25.8686 12.243 25.9783 10.9674ZM27.231 27.2106L28.3856 26.5699C28.1187 24.8498 27.9606 23.1147 27.9122 21.3748C27.8603 19.6431 27.8372 17.9114 27.8372 16.1797C27.8372 14.6943 27.8622 13.2224 27.9122 11.7639C27.9669 10.2843 28.098 8.80848 28.3048 7.34236C27.8921 9.37683 27.6335 11.4395 27.5312 13.5129C27.4273 15.6141 27.3753 17.6921 27.3753 19.7643C27.3753 20.6648 27.3753 21.5941 27.4158 22.5523C27.4562 23.5105 27.485 24.463 27.537 25.4385C27.2699 23.3643 27.11 21.2778 27.0578 19.1871C27.0078 17.0898 26.9809 14.9733 26.977 12.8376L26.8962 12.9184L26.8211 13.4956C26.8211 14.5058 26.7923 15.5159 26.7403 16.5203C26.6884 17.5247 26.6595 18.5406 26.6595 19.5508V21.1785C26.6595 21.952 26.6595 22.7486 26.7403 23.5683C26.8211 24.3879 26.8442 25.1499 26.8962 25.8368C26.8934 26.3146 27.0063 26.7859 27.2253 27.2106H27.231ZM26.9193 31.4301C26.9314 32.1348 26.9835 32.8382 27.0752 33.537C27.1848 34.4144 27.3118 35.3207 27.4677 36.2442C27.6236 37.1678 27.8083 38.0798 28.045 38.9514C28.2817 39.8231 28.4376 40.5042 28.5934 40.9833C28.3337 39.7653 28.1027 38.5531 27.8949 37.3583C27.6885 36.163 27.5861 34.952 27.5889 33.7391C27.6896 34.8913 27.8709 36.0351 28.1316 37.162L28.8648 40.5042C29.1226 41.6586 29.3824 42.8131 29.6441 43.9676C29.9087 45.1204 30.3843 46.2144 31.0469 47.1943C30.6316 46.2261 30.2882 45.2286 30.0194 44.21C29.6845 43.0132 29.3978 41.7645 29.1592 40.4638C28.9283 39.165 28.7435 37.8951 28.6165 36.6425C28.4951 35.573 28.4296 34.4979 28.4203 33.4216C28.5252 35.498 28.8033 37.562 29.2516 39.5922C29.6926 41.6205 30.3167 43.6047 31.1162 45.5203C31.3298 45.9994 31.5838 46.5189 31.8725 47.0731C32.1666 47.6351 32.5126 48.1685 32.9058 48.6662C33.2817 49.1526 33.7387 49.5705 34.2567 49.9015C34.741 50.2142 35.3166 50.3545 35.8905 50.2998C35.543 50.4656 35.1612 50.5467 34.7763 50.5364C33.9924 50.5423 33.231 50.2749 32.623 49.7803C31.9618 49.2557 31.3939 48.6235 30.943 47.91C30.4634 47.1645 30.05 46.3784 29.7076 45.5607C29.3612 44.741 29.0841 44.008 28.8705 43.373C29.0841 44.1696 29.3324 45.0066 29.6268 45.8782C29.9009 46.7237 30.2894 47.5277 30.7814 48.2679C31.2493 48.9648 31.8591 49.5549 32.571 49.9996C33.3261 50.4606 34.1978 50.695 35.0822 50.675C35.7162 50.6998 36.346 50.5627 36.9123 50.2767C36.4032 50.2682 35.9069 50.1162 35.4806 49.838C34.9939 49.5432 34.5509 49.1818 34.1643 48.7643C33.7651 48.3358 33.3929 47.8828 33.0502 47.4078C32.75 47.0128 32.4706 46.6024 32.2131 46.1783C31.7288 45.3313 31.3673 44.4198 31.1393 43.4711C30.8449 42.3571 30.562 41.1622 30.3426 39.9674C30.1233 38.7725 29.9039 37.5199 29.748 36.3654C29.5922 35.211 29.4536 34.1893 29.3497 33.3408C29.2977 32.9136 29.24 32.4634 29.1881 31.9843C29.1361 31.5085 29.1361 31.0285 29.1881 30.5527C28.9912 30.5683 28.7972 30.609 28.6108 30.674L27.8314 30.9106C27.6093 30.9744 27.3945 31.0615 27.1906 31.1704C27.0059 31.2935 26.9135 31.3801 26.9135 31.4301H26.9193Z" fill="#1C190F"/>
<path d="M56.6962 28.8615C57.4121 28.8903 57.7527 29.2424 57.7238 29.9178C57.6844 30.1865 57.6087 30.4487 57.4986 30.697C57.3983 30.9632 57.2826 31.2234 57.1523 31.4763C56.5088 32.8295 55.7354 34.117 54.8431 35.3206C53.9551 36.5172 52.9083 37.5872 51.7315 38.5012C51.4255 38.7378 51.1195 38.9687 50.8136 39.1881C50.5076 39.4074 50.2363 39.6326 49.9014 39.875C49.7167 40.2444 49.4511 40.7351 49.1105 41.3527C48.7537 41.9832 48.3544 42.5887 47.9155 43.1652C47.5022 43.717 47.0341 44.2256 46.5185 44.6833C46.1599 45.0433 45.6756 45.2502 45.1676 45.2605C44.7179 45.255 44.2755 45.1464 43.8745 44.9431C43.4819 44.7353 43.1009 44.5217 42.7199 44.2908V44.2331C42.5874 44.1376 42.4809 44.0105 42.4103 43.8632C42.3397 43.716 42.3072 43.5534 42.3158 43.3903C42.3472 42.9671 42.5085 42.5639 42.7776 42.2359C43.097 41.8302 43.4654 41.4657 43.8745 41.1507C44.6205 40.5498 45.4928 40.1256 46.4261 39.9096C46.9765 38.0355 47.4595 36.1807 47.8751 34.3451C48.303 32.4675 48.558 30.5547 48.6372 28.6306C48.6372 28.4228 48.6372 28.1168 48.6372 27.7128C48.6372 27.3087 48.4524 27.1355 48.1638 27.0894C47.8751 27.0432 47.4768 27.3145 47.1189 27.8051C46.7328 28.3401 46.3911 28.9058 46.0971 29.4964C45.7805 30.1218 45.4973 30.7634 45.2484 31.4186C45.0137 32.0574 44.8462 32.5019 44.7462 32.752C44.3536 34.045 44.0015 35.3207 43.6955 36.5906C43.3895 37.8605 43.0489 39.1477 42.6968 40.4349C42.5964 40.4762 42.4873 40.4921 42.3793 40.4811C42.2587 40.4688 42.1418 40.4323 42.0357 40.3738C41.9295 40.3153 41.8363 40.2359 41.7616 40.1405C41.4806 39.271 41.2986 38.3725 41.2189 37.4622C41.0881 36.2769 40.9957 35.0397 40.9418 33.7506C40.8956 32.4691 40.8668 31.2108 40.861 29.9871C40.8552 28.7633 40.861 27.7994 40.8956 27.1009C40.9572 24.8112 41.1458 22.56 41.4614 20.3473C41.777 18.1346 42.1714 15.92 42.6448 13.7034C42.0807 15.9553 41.6317 18.2344 41.2997 20.532C40.9649 22.841 40.7455 25.1499 40.6416 27.4588C40.6127 28.088 40.607 29.1328 40.6416 30.5874C40.6762 32.042 40.7051 33.5486 40.7859 35.1129C40.8668 36.6771 40.9995 38.126 41.19 39.4594C41.3805 40.7928 41.6634 41.6586 42.0213 42.0569C41.8328 42.1237 41.6399 42.1777 41.4441 42.2185C41.2538 42.2538 41.0601 42.2673 40.8668 42.2589C40.5765 42.2546 40.2902 42.1903 40.026 42.0701C39.7617 41.9499 39.5252 41.7764 39.3311 41.5605C38.9428 41.127 38.6111 40.646 38.344 40.129C38.0578 39.461 37.8917 38.7478 37.8533 38.0221C37.7494 37.0466 37.6743 36.0018 37.6224 34.882C37.5704 33.7621 37.5531 32.7 37.5762 31.6899C37.5993 30.6797 37.6281 29.8832 37.6512 29.2886C37.7089 28.0302 37.8186 26.4948 37.9861 24.6708C38.1535 22.8467 38.3902 20.9592 38.7077 18.9504C39.0252 16.9417 39.4582 14.9098 39.9893 12.878C40.4855 10.9371 41.148 9.04255 41.9694 7.21535C42.6893 5.59473 43.6359 4.08461 44.7808 2.73028C45.7761 1.53832 47.0924 0.656855 48.5737 0.190474C49.0438 0.0428781 49.5361 -0.0215832 50.0284 -1.18534e-05C50.4326 -0.0201978 50.8338 0.0783647 51.1826 0.283515C51.5314 0.488665 51.8125 0.791427 51.9912 1.15445C52.3378 1.87286 52.4986 2.66673 52.4589 3.46336C52.3842 4.51847 52.1766 5.55994 51.8411 6.56309C51.4655 7.77792 51.0222 8.9708 50.5134 10.1361C49.9996 11.3368 49.4396 12.5028 48.845 13.6341C48.2504 14.7655 47.6904 15.7006 47.2632 16.4395C47.6788 15.6698 48.1311 14.752 48.6198 13.6861C49.1086 12.6201 49.5878 11.535 50.0573 10.4305C50.517 9.3551 50.916 8.25471 51.2523 7.13454C51.5452 6.17274 51.7671 5.19074 51.9162 4.19645C51.5363 5.72448 51.0264 7.21724 50.3921 8.65843C49.6801 10.3132 48.8989 11.9852 48.0483 13.6746C47.1978 15.3639 46.3241 16.9994 45.4274 18.581C44.5384 20.1626 43.6955 21.571 42.997 22.8005L43.124 19.9664C43.4473 19.2621 43.9938 18.1173 44.7635 16.5318C45.5332 14.9464 46.303 13.2743 47.0727 11.5157C47.8694 9.76094 48.5756 8.11776 49.1914 6.58617C49.6602 5.59468 49.9923 4.54416 50.1785 3.46336C50.1888 3.41264 50.187 3.36021 50.1732 3.31033C50.1594 3.26045 50.1341 3.21452 50.0992 3.17628C50.0643 3.13803 50.0209 3.10856 49.9725 3.09024C49.9241 3.07192 49.8721 3.06528 49.8206 3.07085C49.5456 3.06607 49.2785 3.16264 49.0701 3.34215C48.8137 3.53511 48.5706 3.74532 48.3427 3.97133C48.1028 4.21303 47.8898 4.48012 47.7077 4.7679C47.5287 5.05652 47.3902 5.28164 47.2978 5.44326C46.4202 6.966 45.7025 8.57541 45.1561 10.2458C44.548 12.0545 44.0226 13.9266 43.58 15.8623C43.1375 17.7979 42.7911 19.7316 42.5409 21.6634C42.2869 23.5875 42.1253 25.35 42.056 26.9508C42.0327 26.603 42.0327 26.2539 42.056 25.906C42.056 25.5482 42.0848 25.2018 42.1022 24.8613C42.2726 21.4175 42.7205 17.993 43.4415 14.6212C44.1288 11.2438 45.1879 7.95278 46.5993 4.80831C45.5828 6.34887 44.8097 8.03687 44.3074 9.81289C43.6706 11.9179 43.1616 14.0595 42.7834 16.2259C42.3985 18.4617 42.0906 20.6802 41.8597 22.8814C41.6346 25.0806 41.4845 26.9624 41.4152 28.5151C41.3545 29.8963 41.3661 31.2797 41.4498 32.6596C41.5383 34.0334 41.6576 35.3976 41.8077 36.7522C41.861 36.6786 41.8875 36.5889 41.8828 36.4982C42.0601 35.1911 42.3068 33.8944 42.6217 32.6134C42.981 31.0824 43.4935 29.5914 44.1516 28.163C44.7532 26.819 45.5768 25.5857 46.5878 24.5149C47.035 24.0298 47.5846 23.6503 48.1966 23.4037C48.8087 23.1571 49.4679 23.0497 50.1266 23.0892C50.7631 23.1117 51.3841 23.2922 51.9335 23.6144C51.422 23.3844 50.8716 23.2531 50.3113 23.2277C49.7768 23.1921 49.2408 23.2687 48.7378 23.4526C48.2347 23.6365 47.7756 23.9237 47.3902 24.2956C46.6006 25.0283 45.9511 25.8987 45.4736 26.8642C45.9742 26.1623 46.5774 25.5397 47.2632 25.0171C47.9514 24.4706 48.8161 24.1954 49.6936 24.2436C50.009 24.2424 50.3212 24.3058 50.6112 24.4299C50.9011 24.554 51.1625 24.7362 51.3793 24.9652C51.795 25.4273 52.0956 25.9811 52.2568 26.5814C52.4415 27.2344 52.5499 27.9065 52.5801 28.5844C52.5801 29.2828 52.6147 29.8832 52.5801 30.3853C52.5335 31.4851 52.4003 32.5794 52.1818 33.6582C51.9736 34.721 51.6743 35.7639 51.2869 36.7753C52.4514 35.6652 53.5016 34.4411 54.4217 33.1214C55.3511 31.7997 56.115 30.369 56.6962 28.8615ZM40.5954 41.1622C40.0497 40.4895 39.6683 39.699 39.4812 38.8533C39.2064 37.7863 39.0134 36.6999 38.9039 35.6035C38.7846 34.449 38.7192 33.3196 38.7077 32.2152C38.6961 31.1107 38.6865 30.1852 38.6788 29.4387C38.6788 29.6927 38.6442 29.9524 38.6095 30.2295C38.5747 30.4899 38.5535 30.7519 38.546 31.0145C38.474 32.4143 38.474 33.8169 38.546 35.2167C38.6289 36.6234 38.9188 38.0102 39.4062 39.3324C39.025 38.5606 38.7901 37.7249 38.7134 36.8676C38.5556 35.7478 38.446 34.5318 38.3844 33.2195C38.3151 31.9092 38.2805 30.6566 38.2689 29.456C38.2574 28.2554 38.2689 27.3145 38.3036 26.6449C38.3036 27.2741 38.2458 28.1399 38.217 29.2309C38.1881 30.3218 38.1823 31.4648 38.217 32.6423C38.2516 33.8199 38.2747 34.9512 38.3497 35.9671C38.3894 36.7742 38.5211 37.574 38.7423 38.3511C38.9188 38.9024 39.155 39.4327 39.4466 39.9327C39.7267 40.4277 40.1205 40.8491 40.5954 41.1622ZM50.4499 3.06508C50.3247 4.1151 50.0547 5.14272 49.6474 6.11862C49.1433 7.48858 48.566 8.92588 47.9155 10.4305C47.2651 11.9352 46.6012 13.3802 45.9239 14.7655C45.2484 16.1509 44.7289 17.2072 44.3594 17.9518C44.9944 16.7396 45.6064 15.5448 46.2241 14.3037C46.8418 13.0627 47.4075 11.8332 47.9559 10.5921C47.5287 11.6254 47.1073 12.6413 46.6801 13.6341C46.2529 14.627 45.8142 15.614 45.3466 16.6069C45.7805 15.9994 46.1482 15.3473 46.4434 14.6616C46.911 13.6976 47.3902 12.6529 47.8809 11.5388C48.3716 10.4248 48.8334 9.33379 49.2606 8.28323C49.6878 7.23267 50.0169 6.44764 50.2478 5.97431C49.9097 7.23528 49.4854 8.47154 48.9778 9.67435C48.4351 10.9789 47.8578 12.2796 47.2459 13.5764C46.6166 14.8752 45.9816 16.1682 45.335 17.4439C44.6885 18.7195 44.1054 19.9144 43.6031 21.0285C43.8745 20.5378 44.2439 19.874 44.7 18.9966L46.2241 16.1105C46.7706 15.0599 47.3132 13.9689 47.852 12.8376C48.3908 11.7062 48.8931 10.6114 49.3588 9.55313C49.8283 8.50258 50.2132 7.55015 50.5134 6.69585C50.7558 6.06335 50.913 5.40143 50.981 4.7275C51.0101 4.3137 50.9429 3.89878 50.7847 3.51531C50.7467 4.02693 50.6499 4.53246 50.496 5.02188C50.3171 5.59911 50.115 6.17634 49.8783 6.75357C49.6417 7.3308 49.3876 7.90803 49.1105 8.4564C48.8334 9.00477 48.5794 9.47232 48.3485 9.84175C48.8219 8.7681 49.2895 7.68291 49.7629 6.58617C50.2304 5.4882 50.4963 4.31502 50.548 3.1228L50.4499 3.06508ZM52.1818 29.9928C52.2046 29.4439 52.1873 28.8941 52.1298 28.3477C52.0711 27.8238 51.945 27.3097 51.7546 26.8181C51.8585 27.2856 51.9393 27.7647 52.0028 28.2496C52.0665 28.722 52.0877 29.1992 52.0663 29.6753C52.0256 30.5951 51.9 31.509 51.6911 32.4056C51.4832 33.3061 51.2523 34.2124 51.0041 35.1244C51.1657 34.374 51.3216 33.6236 51.4832 32.8732C51.6456 32.1131 51.7441 31.3408 51.7776 30.5643C51.7776 30.1025 51.7776 29.658 51.7776 29.2367C51.7543 28.806 51.6885 28.3787 51.5814 27.961C51.6122 28.3035 51.6295 28.6325 51.6333 28.948C51.6333 29.2597 51.6333 29.5888 51.6333 29.9236C51.5076 32.0432 51.1198 34.1391 50.4787 36.1634C49.8874 38.2046 49.0026 40.149 47.852 41.9357C48.7148 40.424 49.4116 38.8235 49.9303 37.162C50.4417 35.4905 50.7347 33.7598 50.802 32.0131C50.6866 32.7289 50.5711 33.4043 50.4614 34.0507C50.3426 34.717 50.1865 35.3761 49.9938 36.0249L50.3229 34.2932C50.4306 33.7212 50.5001 33.1427 50.5307 32.5615V32.1805C50.2904 33.841 49.9335 35.4824 49.4627 37.0927C48.99 38.6906 48.3595 40.2375 47.5807 41.7106C48.1314 40.9559 48.5744 40.1283 48.8969 39.2516C48.2477 41.0367 47.3435 42.7185 46.2125 44.2446C47.0756 43.3499 47.8294 42.3558 48.4582 41.2834C49.1714 40.1046 49.7984 38.8757 50.3344 37.6065C50.8684 36.336 51.2952 35.023 51.6102 33.6813C51.9061 32.4791 52.0897 31.2521 52.1587 30.0159L52.1818 29.9928ZM49.1856 38.5762C49.0874 38.8244 48.9951 39.0553 48.8969 39.2631L49.1856 38.5762ZM49.3241 38.2068L49.1856 38.5762C49.2027 38.4441 49.2501 38.3176 49.3241 38.2068ZM49.4627 38.0221L49.3876 38.2068C49.3874 38.1726 49.3939 38.1386 49.4067 38.107C49.4196 38.0753 49.4386 38.0464 49.4627 38.0221Z" fill="#1C190F"/>
<path d="M70.8515 34.83C70.993 35.0121 71.0809 35.23 71.1055 35.4592C71.1111 35.6152 71.0722 35.7697 70.9936 35.9045C70.9149 36.0394 70.7996 36.1492 70.661 36.2211C70.3457 36.3977 70.0048 36.5243 69.6507 36.5963C69.2718 36.6817 68.8845 36.7243 68.4961 36.7233H67.584C67.5753 37.8878 67.4476 39.0482 67.203 40.1867C66.9639 41.3749 66.5536 42.5221 65.9849 43.5924C65.4431 44.6124 64.6773 45.4965 63.745 46.1784C62.7745 46.8647 61.6081 47.219 60.4198 47.1885C59.6282 47.1941 58.8434 47.0431 58.1106 46.744C58.7816 46.9445 59.477 47.0513 60.1773 47.0615C61.1981 47.0707 62.2001 46.7862 63.0638 46.2418C63.9522 45.6676 64.6953 44.895 65.2344 43.9849C64.7473 44.675 64.0957 45.2328 63.3387 45.6077C62.5817 45.9827 61.7431 46.1629 60.8989 46.1322C59.881 46.1837 58.8722 45.9174 58.0124 45.3702C57.2836 44.8575 56.6894 44.1763 56.2805 43.3846C55.8339 42.5448 55.5259 41.6384 55.3684 40.7004C55.2065 39.7469 55.1235 38.7815 55.1202 37.8143C55.135 36.4063 55.2721 35.0021 55.5301 33.6178C55.7902 32.1233 56.2463 30.6696 56.8867 29.2944C57.478 27.9991 58.3402 26.8456 59.4153 25.9118C60.5299 24.9873 61.9455 24.5046 63.3928 24.5553H63.8951C64.0719 24.5582 64.2457 24.6017 64.4031 24.6823C64.1734 24.635 63.939 24.6137 63.7046 24.6188C62.4309 24.5845 61.18 24.9609 60.1369 25.6925C59.1342 26.4266 58.2964 27.3625 57.6776 28.4401C57.0202 29.565 56.521 30.7751 56.1939 32.0362C55.871 33.2241 55.6603 34.4397 55.5647 35.667C55.7725 34.7819 56.0766 33.7622 56.4768 32.6077C56.8719 31.46 57.3907 30.3587 58.024 29.3233C58.6202 28.3317 59.3772 27.4461 60.2639 26.7026C61.1033 25.9962 62.1687 25.6151 63.2658 25.629C64.1978 25.6216 65.1013 25.9494 65.8117 26.5526C66.1811 26.8479 66.4774 27.2245 66.6777 27.6529C66.8779 28.0814 66.9767 28.5503 66.9663 29.0231C66.958 29.2679 66.9271 29.5113 66.8739 29.7504C66.8104 30.0621 66.6719 30.2237 66.464 30.2237H65.956C65.7867 30.2226 65.6181 30.2012 65.4538 30.1602C65.503 29.972 65.5244 29.7775 65.5173 29.583C65.5009 29.0402 65.3814 28.5054 65.1651 28.0072C65.084 27.7411 64.9159 27.5099 64.6877 27.3508C64.4595 27.1917 64.1844 27.1138 63.9066 27.1298C63.6166 27.1524 63.3355 27.2405 63.0846 27.3875C62.8336 27.5345 62.6192 27.7365 62.4576 27.9783C61.9647 28.594 61.5407 29.2618 61.1933 29.9698C60.8195 30.7142 60.503 31.4861 60.2466 32.2787C59.9926 33.0579 59.802 33.6352 59.6693 34.0104C59.2162 35.5476 58.983 37.1411 58.9765 38.7436C58.9789 39.2184 59.0098 39.6926 59.0689 40.1636C59.1299 40.6775 59.2341 41.1854 59.3806 41.6817C59.5338 42.1631 59.7554 42.62 60.0387 43.0382C60.2886 43.4415 60.6439 43.7688 61.0663 43.9849C60.926 44.0358 60.7766 44.0575 60.6276 44.0484C60.2056 44.057 59.7951 43.9113 59.473 43.6385C59.158 43.3593 58.8943 43.0272 58.6936 42.6573C58.4797 42.2644 58.3019 41.8528 58.1625 41.4278C58.0323 41.0526 57.9376 40.6661 57.8797 40.2733C57.9594 41.1146 58.1698 41.9384 58.5031 42.715C58.6666 43.1091 58.9085 43.4659 59.2142 43.7636C59.5198 44.0613 59.8829 44.2937 60.2812 44.4467C59.7451 44.3403 59.2563 44.0676 58.8841 43.6674C58.5216 43.2811 58.2338 42.831 58.0355 42.3398C57.8282 41.8358 57.6922 41.3055 57.6314 40.7639C57.5703 40.2409 57.5395 39.7147 57.539 39.1881C57.5358 37.8534 57.6614 36.5215 57.9143 35.211C58.1683 33.9065 58.4839 32.6212 58.8611 31.3551C58.3194 32.6012 57.8848 33.8912 57.5621 35.211C57.2215 36.5098 57.0412 37.8455 57.0253 39.1881C57.0185 40.2911 57.2325 41.3842 57.6545 42.4033C57.8688 42.9094 58.1841 43.3666 58.5811 43.7467C58.9782 44.1268 59.4486 44.422 59.9637 44.6141C60.3808 44.8069 60.8322 44.9148 61.2915 44.9315C61.7035 44.9396 62.1112 44.8471 62.4794 44.662C62.8476 44.4769 63.1651 44.2049 63.4044 43.8694C63.9664 43.1381 64.3909 42.3108 64.6571 41.4278C64.9432 40.4868 65.1365 39.5202 65.2344 38.5416C65.3315 37.735 65.3855 36.9238 65.396 36.1115C65.0761 35.9355 64.8378 35.6413 64.7321 35.2918C64.662 34.9383 64.6291 34.5785 64.634 34.2182C64.6398 33.582 64.6939 32.9471 64.7956 32.3191C64.8728 31.6974 65.0986 31.1034 65.4538 30.5874C65.7731 30.411 66.1339 30.3233 66.4987 30.3334C66.7456 30.3254 66.986 30.4136 67.1691 30.5795C67.3522 30.7453 67.4637 30.9758 67.4801 31.2223C67.6476 31.7837 67.7217 32.3687 67.6994 32.954C67.6994 33.5659 67.6648 34.1431 67.6648 34.6857C68.1597 34.9146 68.7017 35.0233 69.2466 35.0032C69.7867 35.013 70.3259 34.9549 70.8515 34.83ZM57.845 39.8288V38.9976C57.8377 37.4399 58.0318 35.8878 58.4223 34.3798C58.8159 32.8701 59.3274 31.3936 59.9521 29.964C59.2058 31.2744 58.6591 32.6888 58.3299 34.1604C57.9655 35.6165 57.7717 37.11 57.7526 38.6109V39.1881C57.7615 39.4043 57.7924 39.619 57.845 39.8288ZM60.5641 44.4986C60.4744 44.5115 60.3832 44.4887 60.3101 44.4351C60.3848 44.4847 60.4759 44.5033 60.5641 44.4871V44.4986Z" fill="#1C190F"/>
<path d="M98.2095 45.8378C98.514 45.7251 98.7857 45.5387 99.0004 45.2952C99.2817 45.0077 99.5403 44.699 99.774 44.3716C99.9989 44.0464 100.192 43.7004 100.351 43.3384C100.519 42.9805 100.646 42.6688 100.744 42.4033C100.727 42.9162 100.605 43.4202 100.387 43.8846C100.168 44.3491 99.8578 44.7642 99.4738 45.1047C98.7735 45.8549 97.8432 46.3505 96.8298 46.5132C96.6976 46.5122 96.566 46.4967 96.4372 46.467C96.3079 46.4404 96.1766 46.4249 96.0447 46.4208C95.7808 46.3792 95.5279 46.2853 95.3008 46.1445C95.0738 46.0037 94.8772 45.819 94.7227 45.6011C94.3305 45.0971 94.0207 44.534 93.8048 43.9329C93.572 43.2991 93.3792 42.6514 93.2275 41.9934C93.0774 41.3296 92.9792 40.787 92.9273 40.3714C92.7959 39.33 92.7361 38.2809 92.7483 37.2313C92.7483 36.1923 92.7599 35.1591 92.783 34.1316C92.7137 34.5703 92.5694 35.1937 92.35 36.0076C92.1306 36.8215 91.8766 37.6411 91.5764 38.4666C91.2959 39.2466 90.9543 40.0032 90.5546 40.7293C90.3142 41.2703 89.9105 41.7225 89.4 42.0223C89.2384 42.0858 89.094 42.1378 88.9728 42.1724C88.83 42.2167 88.683 42.2458 88.5341 42.259C87.7716 42.3401 87.0022 42.1935 86.323 41.8376C85.9728 41.6887 85.6679 41.4503 85.4389 41.1463C85.2099 40.8424 85.0649 40.4836 85.0183 40.1059C84.8638 38.6228 84.9123 37.1255 85.1627 35.6555C85.4175 33.978 85.8991 32.343 86.5943 30.7952C87.2479 29.3042 88.1541 27.9372 89.273 26.7546C90.2907 25.6518 91.6682 24.9478 93.1582 24.7689C93.4538 24.7393 93.7516 24.7393 94.0472 24.7689C94.3474 24.7729 94.6353 24.8881 94.8554 25.0922C94.3645 24.8897 93.8289 24.82 93.3025 24.8901C92.9396 24.9331 92.5864 25.0365 92.2576 25.1961C91.9343 25.3462 91.6168 25.5136 91.2993 25.6925C89.9569 26.4 88.8076 27.4244 87.951 28.6768C87.1157 29.9523 86.5064 31.3621 86.1498 32.8444C86.069 33.1965 85.994 33.5544 85.9362 33.9238C85.8813 34.2931 85.8813 34.6685 85.9362 35.0378C86.1419 34.0585 86.4138 33.0942 86.7502 32.1517C87.114 31.1446 87.5802 30.1775 88.1415 29.2655C88.6787 28.3731 89.3639 27.5787 90.1678 26.9162C90.9526 26.2733 91.9072 25.8723 92.9157 25.7618C93.8902 25.5948 94.8925 25.7723 95.7502 26.264C96.1548 26.5553 96.4877 26.9348 96.7237 27.3739C96.9598 27.8129 97.0928 28.2999 97.1127 28.798C97.1619 29.0157 97.1355 29.2438 97.0376 29.4445C96.9563 29.5311 96.8578 29.6 96.7485 29.6466C96.6392 29.6933 96.5214 29.7169 96.4026 29.7158C95.9812 29.7677 95.7618 29.6292 95.7445 29.2886C95.7272 28.9481 95.6983 28.6595 95.6637 28.4055C95.6272 27.9606 95.4204 27.5471 95.0864 27.251C94.9122 27.1119 94.7104 27.0116 94.4943 26.9569C94.2783 26.9021 94.053 26.8942 93.8336 26.9335C93.1255 27.0182 92.4385 27.6224 91.7727 28.746C91.0658 29.953 90.4854 31.2296 90.0408 32.5558C89.5701 33.9422 89.1731 35.3526 88.8516 36.7811C88.5978 37.78 88.4374 38.8003 88.3724 39.8288L88.3262 39.4536C88.2518 38.7269 88.2888 37.9931 88.4359 37.2775C88.586 36.452 88.7765 35.6093 89.0132 34.755C89.2389 33.9128 89.5068 33.0825 89.8157 32.2671C90.1158 31.4648 90.3929 30.7548 90.6008 30.1372C90.225 30.8511 89.9027 31.592 89.6367 32.3537C89.3654 33.1099 89.094 33.8661 88.8054 34.6222C89.0015 34.1216 89.171 33.611 89.3134 33.0926C89.4577 32.5673 89.6078 32.042 89.7522 31.511C88.8048 33.7316 88.1976 36.0823 87.951 38.4839C87.9025 37.4445 87.9976 36.4033 88.2339 35.3899C88.4648 34.3856 88.6899 33.387 88.9035 32.3826C88.5809 33.1904 88.3448 34.0302 88.1992 34.8878C88.0549 35.7536 87.9106 36.6194 87.7605 37.4853C87.6766 37.7993 87.6531 38.1264 87.6912 38.4493C87.7143 38.9572 87.7374 39.3151 87.7605 39.5229C87.8003 39.7342 87.8915 39.9324 88.026 40.1001C88.0809 40.1934 88.1609 40.2694 88.2568 40.3194C88.3527 40.3694 88.4608 40.3914 88.5687 40.383C88.7765 40.383 89.0883 39.9039 89.5097 39.0265C89.9311 38.1491 90.3468 37.1505 90.7682 36.0364C91.1896 34.9224 91.5475 33.8487 91.8362 32.8155C92.0545 32.1747 92.1808 31.5061 92.2114 30.8298C92.205 30.765 92.2195 30.6998 92.2527 30.6437C92.2859 30.5876 92.3362 30.5436 92.3962 30.5181C92.5512 30.4315 92.7187 30.3692 92.8926 30.3334L93.4699 30.1949L93.8798 30.1141C95.1094 29.9582 95.9177 30.0506 96.3045 30.3854C96.6912 30.7202 96.951 31.4475 97.0896 32.5731C97.2611 33.9378 97.3267 35.3138 97.2859 36.6887L97.1646 40.7755C97.1358 41.243 97.1184 41.7106 97.1184 42.1782C97.1086 42.6431 97.1337 43.1081 97.1935 43.5693C97.1935 43.6559 97.2339 43.8117 97.2859 44.0368C97.3378 44.262 97.4013 44.3716 97.4821 44.3601C97.8574 44.3139 98.2673 43.7829 98.706 42.6804C99.1769 41.4646 99.5664 40.2189 99.8721 38.9515C100.221 37.6623 100.493 36.3535 100.686 35.0321C100.852 34.2314 100.901 33.4108 100.83 32.5962C101.099 32.5676 101.371 32.5871 101.633 32.6539C101.768 32.6772 101.891 32.7482 101.979 32.8541C102.067 32.9599 102.114 33.0936 102.112 33.2311C102.19 34.1968 102.129 35.1686 101.933 36.1173C101.706 37.381 101.403 38.63 101.027 39.8577C100.659 41.0941 100.216 42.3067 99.6989 43.4885C99.3653 44.3636 98.8588 45.1627 98.2095 45.8378ZM96.9857 43.956C96.8626 43.777 96.7926 43.5669 96.7836 43.3499C96.749 43.0575 96.7201 42.8266 96.697 42.6573C96.4676 40.8386 96.4193 39.0018 96.5527 37.1736C96.6861 35.3454 96.6378 33.5085 96.4084 31.6899C96.3925 31.4921 96.3477 31.2976 96.2756 31.1127C96.2915 31.1771 96.2915 31.2445 96.2756 31.3089C96.263 31.3718 96.263 31.4365 96.2756 31.4994C96.3045 32.4288 96.3275 33.335 96.3275 34.2297C96.3275 35.1244 96.3275 36.0307 96.2583 36.9716C96.2121 37.6123 96.1544 38.2703 96.0909 38.9341C96.0158 39.5978 96.0158 40.2677 96.0909 40.9313V41.1218C95.8975 39.9178 95.851 38.6948 95.9523 37.4795C96.0544 36.2642 96.0292 35.0415 95.8773 33.8314C95.8118 35.0282 95.7714 36.2212 95.756 37.4102C95.7337 38.6139 95.7974 39.8176 95.9465 41.0122L96.0447 41.7626C96.0861 42.0988 96.1478 42.4323 96.2294 42.7612C96.3097 43.0766 96.4239 43.3824 96.57 43.6732C96.6099 43.7879 96.6806 43.8895 96.7742 43.9668C96.8679 44.0442 96.9809 44.0943 97.1011 44.1119L96.9857 43.956ZM100.957 37.0293C100.947 36.8999 100.91 36.774 100.848 36.6598C100.617 37.8759 100.344 39.0881 100.028 40.2964C99.7152 41.4999 99.2618 42.6623 98.6771 43.7598C99.2705 42.9348 99.7248 42.0184 100.022 41.0468C100.346 40.0309 100.634 39.0611 100.9 38.1606C100.813 38.4666 100.692 39.0149 100.536 39.7942C100.374 40.5862 100.162 41.3671 99.901 42.132C99.6742 42.8383 99.3517 43.5103 98.9427 44.1292C98.5675 44.7064 98.1402 44.8911 97.6495 44.7064C97.8191 44.8198 98.026 44.8632 98.2268 44.8276C98.6021 44.7815 98.9716 44.412 99.3295 43.7309C99.7162 42.9959 100.024 42.2219 100.247 41.422C100.493 40.5728 100.686 39.7091 100.825 38.836C100.929 38.2418 100.964 37.6374 100.929 37.0351L100.957 37.0293Z" fill="#1C190F"/>
<path d="M117.289 33.8834C116.533 34.2643 115.794 34.6511 115.078 35.0378C114.353 35.4417 113.657 35.8949 112.994 36.3943C113.081 37.2371 113.133 38.126 113.156 38.9803C113.179 39.8346 113.185 40.712 113.185 41.5721C113.185 43.4654 113.111 45.3375 112.965 47.1885C112.815 49.0619 112.508 50.9193 112.047 52.7415C111.806 53.814 111.399 54.8424 110.841 55.7892C110.281 56.728 109.471 57.4932 108.503 58C109.222 57.5339 109.835 56.9224 110.304 56.2048C110.786 55.4547 111.173 54.6482 111.458 53.8036C111.751 52.9399 111.973 52.0538 112.122 51.1541C112.262 50.3088 112.336 49.4538 112.342 48.5969C112.198 49.5457 111.988 50.4831 111.712 51.4023C111.429 52.3647 111.025 53.2878 110.512 54.1499C110.023 54.9723 109.366 55.6823 108.584 56.2337C107.778 56.7915 106.815 57.0786 105.836 57.0534C105.062 57.066 104.299 56.8663 103.63 56.4761C103.003 56.1005 102.464 55.5946 102.049 54.9926C101.626 54.3744 101.307 53.6923 101.102 52.9723C100.895 52.2437 100.79 51.49 100.79 50.7327C100.802 49.8258 100.928 48.9241 101.165 48.0486C101.425 47.0398 101.774 46.0565 102.21 45.1105C102.631 44.1771 103.127 43.2795 103.694 42.4264C104.174 41.6753 104.77 41.0051 105.46 40.4407C104.927 40.9943 104.46 41.6084 104.069 42.2705C103.607 43.0267 103.163 43.8175 102.747 44.6372C102.333 45.4348 101.994 46.2697 101.737 47.1308C101.504 47.8456 101.376 48.5902 101.356 49.3416C101.55 48.1635 101.93 47.0237 102.481 45.9648C103.077 44.7906 103.758 43.662 104.519 42.588C105.287 41.5006 106.114 40.4562 106.996 39.4594C107.79 38.5731 108.634 37.7328 109.524 36.9427C109.524 35.7267 109.492 34.5279 109.426 33.3465C109.361 32.1652 109.288 30.9664 109.207 29.7504C108.961 30.4662 108.637 31.3282 108.237 32.3364C107.837 33.3446 107.387 34.3548 106.886 35.3669C106.402 36.3458 105.858 37.2942 105.258 38.2068C104.788 38.9532 104.219 39.6328 103.567 40.2271C103.394 40.2675 103.249 40.3022 103.122 40.3195C102.778 40.3762 102.426 40.3635 102.087 40.2822C101.748 40.2009 101.429 40.0527 101.148 39.8461C100.718 39.5212 100.383 39.0866 100.178 38.5878L100.022 38.2415C99.968 38.1312 99.9347 38.0118 99.9241 37.8893C99.97 36.2017 100.226 34.5264 100.686 32.9021C101.188 30.9488 101.918 29.0617 102.863 27.2799C103.744 25.5807 104.896 24.0366 106.274 22.7082C106.854 22.1134 107.546 21.6393 108.31 21.3133C109.074 20.9873 109.895 20.816 110.725 20.8091C111.013 20.81 111.299 20.8528 111.574 20.9361C111.862 21.0289 112.115 21.2059 112.301 21.4441C112.11 21.2838 111.882 21.1745 111.637 21.1266C111.397 21.0844 111.154 21.0632 110.91 21.0631C110.506 21.0601 110.104 21.1146 109.715 21.2247C109.344 21.3256 108.985 21.4629 108.641 21.6346C107.779 21.9978 106.988 22.5097 106.303 23.1469C105.628 23.7896 105.021 24.4994 104.49 25.2653C103.938 26.0402 103.446 26.8566 103.018 27.707C102.611 28.5377 102.252 29.3916 101.945 30.2641C101.777 30.7259 101.621 31.1877 101.471 31.6553C101.328 32.1032 101.254 32.5704 101.252 33.0406C101.553 31.8599 101.939 30.7025 102.406 29.5772C102.931 28.3146 103.58 27.1079 104.346 25.9753C105.068 24.8853 105.951 23.912 106.967 23.0892C107.892 22.316 109.058 21.8911 110.263 21.8885C112.703 21.8885 113.923 23.1315 113.923 25.6174C113.922 25.7545 113.912 25.8913 113.895 26.0273C113.884 26.1637 113.884 26.3007 113.895 26.4371C113.805 26.5739 113.683 26.6858 113.538 26.7625C113.394 26.8392 113.233 26.8782 113.069 26.8758C112.648 26.8758 112.463 26.6796 112.492 26.2986C112.521 25.9176 112.555 25.577 112.555 25.3231C112.561 24.8374 112.441 24.3584 112.209 23.9319C112.083 23.7211 111.901 23.5501 111.682 23.4388C111.464 23.3274 111.218 23.2803 110.974 23.3028C110.661 23.3353 110.357 23.4303 110.082 23.5819C109.806 23.7336 109.564 23.939 109.369 24.1859C108.723 24.8754 108.161 25.6388 107.694 26.4602C107.108 27.4603 106.58 28.4933 106.113 29.5542C105.61 30.7086 105.154 31.7938 104.756 32.8674C104.358 33.9411 104.029 34.9166 103.78 35.7998C103.574 36.459 103.425 37.135 103.336 37.8201V37.6354C103.348 36.9088 103.455 36.187 103.653 35.4881C103.861 34.6857 104.115 33.8776 104.41 33.0579C104.704 32.2383 105.022 31.4475 105.356 30.6913C105.691 29.9351 105.986 29.2367 106.24 28.6075C105.652 29.6986 105.135 30.8265 104.693 31.9843C104.254 33.1387 103.838 34.3278 103.463 35.5516C103.496 34.8261 103.646 34.1108 103.907 33.4331C104.196 32.5711 104.552 31.6668 104.975 30.7202C105.399 29.7735 105.814 28.8711 106.222 28.0129C106.644 27.1702 107.002 26.5006 107.296 25.9926C106.813 26.7698 106.37 27.5713 105.968 28.3939C105.464 29.406 104.991 30.4585 104.548 31.5514C104.109 32.6423 103.728 33.716 103.394 34.7665C103.113 35.6038 102.952 36.4762 102.914 37.3583C102.925 37.5173 102.946 37.6755 102.978 37.8316C103.018 38.0625 103.128 38.178 103.295 38.178C103.59 38.178 104.023 37.6931 104.589 36.7291C105.154 35.7651 105.743 34.6511 106.321 33.41C106.898 32.169 107.435 30.9741 107.897 29.8139C108.358 28.6537 108.659 27.886 108.786 27.505C108.654 27.2296 108.589 26.9271 108.595 26.6218C108.594 26.313 108.675 26.0094 108.83 25.7425C108.985 25.4756 109.209 25.255 109.478 25.1037C110.109 27.6743 110.625 30.2622 111.025 32.8674C111.417 35.4793 111.61 38.1171 111.603 40.7582C111.601 42.2471 111.516 43.7349 111.349 45.2144C111.179 46.7036 110.987 48.1871 110.771 49.6648C111.108 48.2708 111.36 46.8579 111.528 45.4337C111.696 44.0083 111.781 42.5744 111.782 41.1391C111.78 39.084 111.674 37.0303 111.464 34.9859C111.249 32.9425 110.975 30.9106 110.644 28.8903C111.146 30.9815 111.514 33.1022 111.747 35.2399C111.978 37.3794 112.093 39.5298 112.093 41.6817C112.093 43.0248 112.042 44.3601 111.938 45.6877C111.832 47.0433 111.653 48.3922 111.401 49.7283C111.95 47.3255 112.225 44.8681 112.22 42.4033C112.22 41.1795 112.199 39.875 112.157 38.4897C112.117 37.0985 112.042 35.7016 111.938 34.2874C111.834 32.8732 111.66 31.5052 111.43 30.1545C111.213 28.8727 110.908 27.6075 110.517 26.3678C111.345 29.0675 111.864 31.8521 112.065 34.6684C112.257 37.4276 112.351 40.2579 112.347 43.1594C112.474 41.8549 112.538 40.508 112.538 39.1188C112.539 36.7452 112.39 34.3739 112.093 32.0189C111.802 29.6841 111.36 27.3704 110.771 25.0922C111.096 25.6553 111.339 26.2617 111.493 26.8931C111.724 27.7128 111.926 28.5844 112.07 29.5137C112.215 30.4431 112.388 31.3436 112.515 32.2267C112.642 33.1099 112.723 33.8026 112.769 34.3105C112.931 34.1835 113.167 34.0277 113.462 33.8372C113.756 33.6467 114.079 33.4562 114.437 33.26C114.795 33.0637 115.136 32.9079 115.448 32.7578C115.674 32.6384 115.921 32.5639 116.175 32.5384C116.725 32.5384 117.031 32.6539 117.093 32.8848C117.201 33.2077 117.267 33.5434 117.289 33.8834ZM104.837 54.0864C105.137 54.0663 105.428 53.9726 105.684 53.8135C105.94 53.6545 106.152 53.435 106.303 53.1744C106.792 52.4611 107.18 51.6843 107.458 50.8655C107.813 49.8536 108.105 48.8202 108.329 47.7715C108.578 46.6171 108.786 45.5203 108.953 44.4293C109.12 43.3384 109.236 42.3456 109.299 41.4624C109.363 40.5792 109.415 39.927 109.455 39.5056C107.912 41.1824 106.557 43.0232 105.414 44.995C104.821 46.0191 104.328 47.0977 103.942 48.216C103.576 49.2292 103.381 50.2962 103.365 51.3734C103.367 51.6382 103.388 51.9025 103.428 52.1642C103.478 52.4862 103.564 52.8017 103.682 53.1051C103.772 53.3761 103.92 53.6242 104.115 53.8324C104.212 53.9215 104.326 53.9899 104.45 54.0336C104.574 54.0772 104.706 54.0952 104.837 54.0864Z" fill="#1C190F"/>
<path d="M121.319 53.7227C121.319 53.7574 121.434 53.844 121.434 53.844L121.209 53.6015C121.209 53.6015 121.324 53.6823 121.319 53.7227Z" fill="#1C190F"/>
<path d="M147.534 21.4152C146.841 19.164 145.929 16.9705 144.988 14.702C144.137 12.763 143.161 10.8811 142.067 9.06828C141.028 7.1692 140.196 4.77369 138.574 4.78524C135.97 4.78524 135.751 3.9194 133.99 4.82565C131.843 5.92815 130.134 7.94846 128.506 10.6961C127.005 13.2763 125.366 15.158 123.813 17.8941C122.346 20.4455 120.857 22.8179 119.546 25.1961C118.305 27.4646 116.602 31.2858 116.602 31.2858C117.346 28.8206 118.231 26.4 119.252 24.0358C120.522 21.3806 122.035 18.7888 123.507 16.1162C125.083 13.2763 126.739 11.1694 128.339 8.41601C129.822 5.85311 132.137 3.29599 135.266 2.79957C136.848 2.64677 138.445 2.77575 139.983 3.18054C139.186 3.01892 138.435 2.38974 137.575 2.22234C136.654 2.04342 135.708 2.04342 134.787 2.22234C133.068 2.52097 131.488 3.36013 130.278 4.61784C128.546 6.61506 127.109 9.16641 125.62 11.9891C124.222 14.627 122.646 16.4799 121.232 19.0024C119.893 21.3979 118.588 23.6202 117.532 25.9638C116.598 27.906 115.872 29.9415 115.367 32.0362C115.021 33.6904 114.889 35.382 114.974 37.0697C115.075 39.0718 115.464 41.0489 116.129 42.9401C116.915 45.1799 118.054 47.2803 119.5 49.1626C121.201 51.4287 123.458 53.218 126.053 54.3577C129.943 56.0894 133.557 55.6969 136.444 53.8382C139.486 51.8698 141.888 48.7874 143.545 45.3529C145.25 41.8463 146.296 38.0565 146.633 34.172C146.799 30.7906 146.77 27.4024 146.546 24.0243C147.091 26.4128 147.477 28.8348 147.701 31.2743C147.857 34.1312 147.62 36.996 146.997 39.7884C146.315 42.7638 145.221 45.6294 143.747 48.3026C142.428 50.8523 140.495 53.0343 138.124 54.6521C135.636 56.3173 132.655 57.0867 129.672 56.834C126.82 56.5742 121.417 53.8382 121.417 53.8382C122.617 54.7294 123.875 55.5411 125.181 56.2683C127.868 57.6748 130.95 58.1402 133.933 57.5902C136.672 56.9797 139.17 55.5741 141.114 53.5496C143.184 51.4344 144.858 48.9652 146.056 46.2592C147.294 43.5464 148.151 40.6753 148.602 37.7277C148.957 34.9548 149.071 32.1563 148.942 29.3637C148.828 26.6634 148.354 23.9903 147.534 21.4152ZM139.59 35.4015C139.423 39.4189 138.402 43.3546 136.594 46.9461C135.895 48.4079 134.884 49.6986 133.632 50.7269C131.254 52.5336 128.5 52.0776 125.925 50.9289C121.567 48.9779 118.548 44.1003 118.034 39.621C117.767 36.5835 118.251 33.527 119.442 30.7201C121.884 24.5323 127.271 19.3314 129.892 13.1839C130.278 12.2604 131.196 10.4017 133.263 10.2978C134.418 10.2285 136.115 9.93412 136.779 12.6067C137.622 16.0701 137.933 19.5969 138.603 23.0834C139.366 26.8399 139.716 30.6685 139.648 34.501C139.619 34.8069 139.607 35.1071 139.59 35.4015ZM145.773 33.5197C145.598 35.8726 145.2 38.2036 144.584 40.4811C144.006 42.6803 141.986 46.086 141.986 46.086C141.986 46.086 142.754 43.7136 143.14 42.6226C143.553 41.4605 143.903 40.2774 144.191 39.0784C144.772 36.229 145.062 33.328 145.057 30.42C145.117 27.5534 144.838 24.6897 144.226 21.8885C143.823 20.1724 143.33 18.4788 142.748 16.8147C142.189 15.3054 141.55 13.8275 140.831 12.3873C140.19 10.8737 139.397 9.42901 138.464 8.07545C137.61 6.86904 135.457 5.98588 135.457 5.98588C135.457 5.98588 137.904 6.47075 138.845 7.43472C139.873 8.54485 140.724 9.80641 141.368 11.1752C142.129 12.5442 142.769 13.9774 143.279 15.4582C143.856 17.2476 144.434 19.0774 144.849 20.9477C145.295 22.8484 145.613 24.7768 145.802 26.7199C145.986 28.9832 145.976 31.2581 145.773 33.5197Z" fill="#045F01"/>
<path d="M123.668 33.4389C124.879 31.6235 126.356 30.0006 128.05 28.6248C125.383 31.511 122.514 36.1923 123.195 39.2574C123.928 34.501 125.29 33.4216 126.145 31.8284C126.987 30.3462 128.088 29.0266 129.395 27.9321C128.323 27.8224 127.249 28.1259 126.393 28.7807C125.312 29.6525 124.432 30.7472 123.813 31.9901C123.178 33.2253 122.202 34.5241 121.59 35.8864C121.857 34.6368 122.278 33.4251 122.843 32.2787C123.392 31.0624 124.134 29.9434 125.042 28.9654C124.465 29.4733 124.153 29.7504 123.576 30.3219C123.143 30.8066 122.768 31.3392 122.456 31.9092C121.868 32.756 121.358 33.6544 120.932 34.5934C120.199 36.5444 121.099 38.9688 121.076 39.367C119.408 37.1332 119.662 35.5112 121.255 32.7116C124.315 27.3491 127.934 26.7315 129.141 27.1875C132.143 28.342 134.7 30.2122 135.936 33.3696C136.524 34.8008 136.617 36.3878 136.198 37.8775C135.78 39.3673 134.874 40.6741 133.627 41.5894C132.539 42.3953 131.273 42.9255 129.935 43.1346C128.598 43.3437 127.23 43.2255 125.949 42.79C118.548 39.9443 122.421 35.4361 123.668 33.4389Z" fill="#045F01"/>
<path d="M86.5943 31.1184C86.4272 30.9873 86.2277 30.9035 86.017 30.876C85.815 30.876 85.7053 30.928 85.6937 31.078C85.6565 31.3085 85.5906 31.5335 85.4975 31.7476C85.4166 31.967 85.3301 32.1921 85.2319 32.4114C85.1338 32.6308 85.001 33.0348 84.8451 33.5024C84.6848 33.9739 84.4778 34.4283 84.2274 34.8589C84.0041 35.2548 83.7347 35.6229 83.425 35.9556C83.1813 36.1417 82.8752 36.2265 82.5706 36.1923C82.3519 36.1458 82.1458 36.0526 81.9665 35.9191C81.7872 35.7856 81.6388 35.6149 81.5314 35.4188C81.1847 34.8962 80.8816 34.346 80.6251 33.7737C80.3549 33.1708 80.1216 32.552 79.9266 31.9208C79.7418 31.3089 79.6206 30.8587 79.5686 30.5758C79.8573 30.3738 80.2556 30.1025 80.7694 29.762C81.3021 29.4181 81.8148 29.0442 82.305 28.6421C82.7818 28.2582 83.2276 27.8374 83.6386 27.3838C83.9571 27.0673 84.1793 26.667 84.2794 26.2293C84.2885 26.0495 84.2468 25.8707 84.159 25.7135C84.0712 25.5562 83.9408 25.4269 83.7829 25.3404C83.4915 25.0952 83.1414 24.9301 82.7669 24.8613C82.6791 24.8444 82.589 24.8444 82.5013 24.8613C81.4797 25.3409 80.5827 26.0501 79.8804 26.9335C79.0383 27.9427 78.2959 29.0311 77.6636 30.1833C77.0198 31.3442 76.4603 32.5499 75.9894 33.791C75.594 34.8102 75.3001 35.8658 75.1119 36.9427C75.0542 35.9152 75.0369 34.882 75.0657 33.8372C75.0946 32.7924 75.1581 31.7707 75.2736 30.7606C75.2736 30.7606 75.6603 26.9624 76.2896 23.3778C76.1823 22.9889 75.9845 22.6309 75.7123 22.333C75.568 22.9102 75.4352 23.5279 75.314 24.1166C74.9041 26.1023 74.4307 29.0289 74.4307 29.0289C74.4307 29.0289 74.8695 25.7675 75.2389 24.1686C75.3832 23.5394 75.5045 22.9045 75.6546 22.2695C75.7123 22.0271 75.5853 21.9174 75.5276 22.1714C75.3428 22.9795 75.1523 23.7876 74.9503 24.5842C74.5451 26.35 74.2482 28.1389 74.0612 29.9409C73.9977 30.5643 73.9458 31.1646 73.9054 31.7534C73.865 32.3422 73.813 33.5774 73.813 33.5774C73.813 33.5774 73.8707 31.6322 73.9227 30.6913C73.9746 29.7504 74.0555 28.7922 74.1536 27.8051C74.2748 26.6507 74.4769 25.3 74.7309 23.6953C74.8348 23.118 74.9503 22.5408 75.0773 21.9347C75.1235 21.7154 74.2171 21.7789 74.1016 21.802C72.9471 22.0617 72.3698 23.5336 72.0753 24.5553C71.6644 25.8931 71.3841 27.2676 71.2383 28.6594C71.1632 29.4791 71.0593 29.9178 70.9958 31.2685C70.9958 31.6149 70.9958 31.9727 70.9612 32.3248C70.9359 30.8287 71.0285 29.3329 71.2383 27.8513C71.5789 24.844 72.8027 21.1959 74.8695 19.1005C73.8562 19.8683 73.0293 20.8549 72.4506 21.9867C71.8158 23.2249 71.3517 24.5433 71.0708 25.9061C70.7534 27.3867 70.5794 28.8944 70.5513 30.4084C70.5166 31.9824 70.5455 33.5216 70.6379 35.0263C70.736 36.5502 70.8919 37.9932 71.117 39.367C71.1632 39.6383 71.2036 39.8981 71.2498 40.1521C71.3567 40.9406 71.5503 41.7149 71.8271 42.461C71.9729 42.7514 72.1511 43.0244 72.3582 43.2749C72.6084 43.5196 72.9435 43.6582 73.2934 43.6616C73.7203 43.6973 74.1499 43.6482 74.5577 43.5173C74.97 43.3954 75.367 43.2269 75.7412 43.0151C75.6791 42.8635 75.6553 42.699 75.6719 42.536C75.8225 41.1988 76.048 39.871 76.3473 38.5589C76.6591 37.2313 76.9997 35.921 77.3518 34.6164C77.4984 35.163 77.6915 35.696 77.9291 36.2096C78.1792 36.7741 78.4827 37.3134 78.8355 37.8201C79.1817 38.3047 79.6026 38.7314 80.0824 39.0842C80.5646 39.4354 81.1294 39.6561 81.722 39.7249C82.4346 39.8264 83.1614 39.7305 83.8233 39.4479C83.9808 39.3912 84.135 39.3257 84.2851 39.2516V39.1015L83.9214 39.2978C83.3408 39.5919 82.685 39.7045 82.0395 39.621C81.4947 39.5678 80.9696 39.3896 80.5049 39.1003C80.0403 38.8109 79.6488 38.4183 79.3608 37.9528C79.6774 38.3191 80.0518 38.6311 80.4692 38.8764C80.8785 39.1309 81.3368 39.2961 81.8143 39.3613C82.1384 39.4007 82.4672 39.3695 82.7781 39.2698C83.089 39.1702 83.3747 39.0045 83.6155 38.784C83.8819 38.5735 84.1327 38.3439 84.366 38.0971V38.0163C84.5596 37.7534 84.7351 37.4776 84.8913 37.1909C85.2643 36.5197 85.5717 35.8142 85.8092 35.084C86.0459 34.3625 86.2422 33.7737 86.3865 33.3523C86.4904 33.0522 86.5886 32.7751 86.6694 32.5153C86.7532 32.2393 86.8055 31.9546 86.8252 31.6668C86.8402 31.5631 86.8266 31.4572 86.7859 31.3606C86.7452 31.264 86.679 31.1803 86.5943 31.1184ZM74.1594 42.1377C73.9666 41.7296 73.825 41.2992 73.738 40.8563C73.6406 40.4042 73.5826 39.9446 73.5648 39.4825C73.5398 39.0981 73.5398 38.7124 73.5648 38.328C73.5648 38.5647 73.6167 38.9053 73.6571 39.2516C73.6975 39.5979 73.7553 40.0135 73.8245 40.4061C73.8881 40.7838 73.9729 41.1577 74.0786 41.5259C74.1508 41.8045 74.2595 42.0723 74.4018 42.3225C74.0716 41.1314 73.8703 39.9084 73.8015 38.6744C73.7197 37.4277 73.7448 36.1763 73.8765 34.9339C73.8765 35.3668 73.8765 35.9672 73.94 36.7407C74.0035 37.5141 74.0439 38.2934 74.1016 39.0842C74.1609 39.8468 74.2591 40.6059 74.3961 41.3585C74.4817 41.92 74.6308 42.47 74.8406 42.9978C74.5423 42.7755 74.3074 42.479 74.1594 42.1377ZM82.8188 38.9572C82.4445 39.1255 82.031 39.1874 81.6238 39.1362C81.0019 39.0601 80.4179 38.7963 79.9497 38.38C79.4402 37.9333 79.0089 37.4046 78.6738 36.8157C78.3286 36.2232 78.0609 35.5888 77.8772 34.9282C77.7081 34.3675 77.6435 33.7805 77.6867 33.1965C77.8941 34.1708 78.1504 35.134 78.4545 36.0826C78.8257 37.07 79.514 37.9064 80.4115 38.4608C79.5153 37.7049 78.856 36.7069 78.5122 35.5862C78.1899 34.4951 77.9848 33.3728 77.9003 32.2383C77.9753 32.7231 78.0965 33.3235 78.2697 34.0565C78.4391 34.7741 78.6769 35.4739 78.9798 36.1461C79.2752 36.7782 79.6645 37.362 80.1344 37.8778C80.5531 38.3596 81.1348 38.6699 81.7681 38.7494C82.1103 38.7971 82.4588 38.7702 82.7896 38.6705C83.1205 38.5709 83.4258 38.4009 83.6848 38.1722C83.4739 38.5058 83.1684 38.7691 82.8073 38.9284L82.8188 38.9572Z" fill="#1C190F"/>
<path d="M68.8887 10.6672L67.405 12.0756V15.135H65.8117V5.44905H67.4281V10.0669L72.3005 5.44905H74.4076L69.9682 9.63974L74.7367 15.135H72.7392L68.8887 10.6672Z" fill="#1C190F"/>
<path d="M83.2114 12.4624H79.0029L77.8483 15.135H76.1164L80.3422 5.44905H81.9125L86.1556 15.135H84.3891L83.2114 12.4624ZM82.6341 11.1809L81.1043 7.42895L79.5513 11.1809H82.6341Z" fill="#1C190F"/>
<path d="M94.4051 14.3615V15.5159H92.806V14.3615C89.7348 14.1652 87.391 12.8087 87.391 10.3209C87.391 7.83301 89.7521 6.44766 92.806 6.23986V5.0854H94.4051V6.23986C97.4359 6.44766 99.8144 7.80415 99.8144 10.3209C99.8144 12.8376 97.4706 14.1652 94.4051 14.3615ZM92.806 13.0454V7.55017C90.6296 7.70602 89.0478 8.51992 89.0478 10.3036C89.0478 12.0872 90.6354 12.8953 92.806 13.0454ZM98.1402 10.3036C98.1402 8.51992 96.5527 7.70602 94.382 7.55017V13.0454C96.5584 12.8953 98.1402 12.1218 98.1402 10.3036Z" fill="#1C190F"/>
<path d="M109.992 13.8073V15.135H102.181V5.44905H109.911V6.76513H103.775V9.65128H109.386V10.9385H103.775V13.8246L109.992 13.8073Z" fill="#1C190F"/>
</svg>
