<svg width="149" height="58" fill="none" xmlns="http://www.w3.org/2000/svg"><path d="M39.03 49.105c.267 0 .428-.092.48-.277.053-.184.133-.36.237-.52l.08.081a2.309 2.309 0 01-.519 1.512c-.352.435-.783.8-1.27 1.074a5.8 5.8 0 01-1.634.64 7.218 7.218 0 01-1.593.197 5.127 5.127 0 01-4.497-2.43 18.646 18.646 0 01-2.512-5.772 42.27 42.27 0 01-1.194-6.766c-.208-2.278-.341-4.082-.399-5.414l-2.857 1.114c-.955.385-1.88.783-2.777 1.195a95.93 95.93 0 01-.918 5.495 62.694 62.694 0 01-1.547 6.286 38.204 38.204 0 01-2.31 5.934 15.726 15.726 0 01-3.1 4.422 7.055 7.055 0 01-4.93 1.986 8.125 8.125 0 01-2.817-.514 8.255 8.255 0 01-2.488-1.472 7.464 7.464 0 01-1.79-2.274A6.06 6.06 0 010 50.796c.114.173.183.371.202.577.035.202.101.397.196.578a9.236 9.236 0 002.98 3.925 7.713 7.713 0 004.646 1.35 5.3 5.3 0 003.655-1.35 12.342 12.342 0 002.58-3.348 24.11 24.11 0 001.732-4.139 56.54 56.54 0 001.068-3.821c-.317.9-.739 1.98-1.27 3.22a23.491 23.491 0 01-1.865 3.545 11.748 11.748 0 01-2.5 2.828 5.063 5.063 0 01-5.6.578 6.063 6.063 0 01-1.783-1.57 7.1 7.1 0 01-1.155-2.153 7.895 7.895 0 01-.392-2.465 10.61 10.61 0 011.391-5.195 20.705 20.705 0 013.493-4.618 31.443 31.443 0 014.572-3.781 41.703 41.703 0 014.693-2.788c.26-1.154.578-2.309.872-3.463.295-1.155.606-2.31.878-3.464.523-2.124 1.08-4.221 1.668-6.292a625.37 625.37 0 001.732-6.21c.215-.851.535-1.952.958-3.302a26.404 26.404 0 011.588-3.943 13.719 13.719 0 012.263-3.302A3.752 3.752 0 0129.586.877a3.464 3.464 0 00-1.512.757c-.492.41-.946.864-1.357 1.356a13.54 13.54 0 00-1.986 3.14 25.35 25.35 0 00-1.431 3.943c-.376 1.356-.745 2.724-1.12 4.104a312.191 312.191 0 00-2.107 7.758 444.97 444.97 0 00-1.952 7.844c.62-2.15 1.226-4.267 1.819-6.35.592-2.081 1.2-4.198 1.824-6.349.42-1.381.83-2.747 1.23-4.098.388-1.336.908-2.63 1.553-3.862.363-.782.774-1.541 1.23-2.274a5.352 5.352 0 011.627-1.87 2.794 2.794 0 011.588-.48c.75.024 1.486.221 2.147.578 0 3.463.066 6.886.197 10.269.13 3.382.383 6.807.756 10.274l2.707-.715c-1.697.585-3.606 1.3-5.726 2.147a121.707 121.707 0 00-6.35 2.748c-2.121.98-4.16 2.003-6.114 3.065a36.77 36.77 0 00-5.063 3.267c.531-.323 1.403-.785 2.62-1.397 1.219-.612 2.61-1.287 4.169-2.026a274.166 274.166 0 014.924-2.275c1.72-.773 3.354-1.483 4.89-2.147a58.298 58.298 0 014.041-1.593 9.16 9.16 0 012.39-.577c.104 0 .196.115.277.358.087.271.141.552.162.837 0 .317.052.623.075.912.023.288.04.49.04.577a1.154 1.154 0 01-.317.952 4.294 4.294 0 00-.953-.08c-.4-.01-.8.018-1.195.08.052.48.173 1.288.358 2.43.185 1.143.41 2.43.675 3.862.266 1.432.578 2.921.959 4.456.338 1.431.762 2.84 1.27 4.22a18.677 18.677 0 001.472 3.146c.502.831 1.045 1.24 1.628 1.24zM6.524 51.73a6.166 6.166 0 003.464-2.228 20.745 20.745 0 002.713-4.22 38.725 38.725 0 002.038-4.877c.578-1.645.988-3.03 1.305-4.145a47.925 47.925 0 00-3.568 2.31 25.236 25.236 0 00-3.463 2.99 15.372 15.372 0 00-2.662 3.601 8.658 8.658 0 00-1.033 4.105c.002.484.07.965.202 1.431a1.53 1.53 0 001.004 1.033zm18.659-20.618a156.73 156.73 0 00-5.363 2.268 52.829 52.829 0 00-5.837 3.025 30.597 30.597 0 00-5.126 3.821 12.122 12.122 0 00-3.216 4.74 16.272 16.272 0 013.533-4.56 34.278 34.278 0 015.005-3.788 58.92 58.92 0 015.64-3.105c1.934-.9 3.718-1.714 5.364-2.401zm.796-20.146a89.26 89.26 0 00-2.661 9.392 1067.19 1067.19 0 01-2.182 9.559c.79-.37 1.587-.733 2.384-1.074a57.51 57.51 0 012.46-.998 246.189 246.189 0 01-.116-4.618c-.023-1.542-.04-3.077-.04-4.618v-3.821a42.266 42.266 0 01.155-3.822zm1.253 16.244l1.155-.641a41.387 41.387 0 01-.474-5.195 173.404 173.404 0 01-.075-5.195c0-1.486.025-2.958.075-4.416.055-1.48.186-2.956.393-4.422a41.267 41.267 0 00-.774 6.17c-.104 2.102-.156 4.18-.156 6.252 0 .9 0 1.83.04 2.788.041.959.07 1.911.122 2.887a60.835 60.835 0 01-.48-6.252c-.05-2.097-.076-4.214-.08-6.35l-.08.081-.076.578c0 1.01-.029 2.02-.08 3.024a58.882 58.882 0 00-.081 3.03v1.628c0 .774 0 1.57.08 2.39.081.82.104 1.582.156 2.269-.003.478.11.949.33 1.374h.005zm-.312 4.22c.012.704.064 1.407.156 2.106.11.877.237 1.784.393 2.707.156.924.34 1.836.577 2.707.237.872.393 1.553.548 2.032a97.25 97.25 0 01-.698-3.625 20.986 20.986 0 01-.306-3.619c.1 1.152.282 2.296.543 3.423l.733 3.342c.258 1.155.517 2.31.78 3.464a9.59 9.59 0 001.402 3.226 21.462 21.462 0 01-1.028-2.984 42.063 42.063 0 01-.86-3.746 51.537 51.537 0 01-.543-3.822 30.927 30.927 0 01-.196-3.22 37.36 37.36 0 00.832 6.17 34.326 34.326 0 001.864 5.928c.214.48.468.999.756 1.553.295.562.64 1.096 1.034 1.593a5.35 5.35 0 001.35 1.236c.485.312 1.06.453 1.635.398-.348.166-.73.247-1.115.236a3.372 3.372 0 01-2.153-.756 7.506 7.506 0 01-1.68-1.87 15.177 15.177 0 01-1.235-2.35 31.375 31.375 0 01-.837-2.187c.213.797.461 1.634.756 2.505.274.846.662 1.65 1.154 2.39A5.957 5.957 0 0032.571 50a4.619 4.619 0 002.511.675 3.736 3.736 0 001.83-.398 2.702 2.702 0 01-1.431-.439 6.104 6.104 0 01-1.317-1.074 14.05 14.05 0 01-1.114-1.356c-.3-.395-.58-.806-.837-1.23a10.305 10.305 0 01-1.074-2.707 47.276 47.276 0 01-.796-3.504 79.373 79.373 0 01-.595-3.602 265.181 265.181 0 01-.398-3.024c-.052-.427-.11-.878-.162-1.357a6.588 6.588 0 010-1.431c-.197.015-.39.056-.577.121l-.78.237a3.17 3.17 0 00-.64.26c-.185.123-.277.21-.277.26h.005zm29.776-2.569c.716.03 1.057.381 1.028 1.057-.04.268-.115.53-.225.779-.1.266-.216.526-.347.78a23.146 23.146 0 01-2.309 3.844 16.408 16.408 0 01-3.112 3.18 30.38 30.38 0 01-.917.687c-.306.22-.578.445-.913.687-.184.37-.45.86-.79 1.478a16.15 16.15 0 01-1.195 1.812c-.414.552-.882 1.06-1.397 1.518a1.97 1.97 0 01-1.351.578 2.94 2.94 0 01-1.294-.318 22.71 22.71 0 01-1.154-.652v-.058a.976.976 0 01-.404-.843 2.06 2.06 0 01.462-1.154c.319-.406.687-.77 1.096-1.085a6.35 6.35 0 012.552-1.241 91.288 91.288 0 001.45-5.565c.427-1.877.682-3.79.761-5.714v-.918c0-.404-.185-.578-.473-.624-.289-.046-.687.226-1.045.716-.386.535-.728 1.1-1.022 1.691a19.91 19.91 0 00-.849 1.923 58.93 58.93 0 01-.502 1.333 68.196 68.196 0 00-1.05 3.839c-.306 1.27-.647 2.557-1 3.844a.66.66 0 01-.317.046.901.901 0 01-.617-.34 12.158 12.158 0 01-.543-2.679 54.696 54.696 0 01-.277-3.711c-.046-1.282-.075-2.54-.081-3.764-.006-1.224 0-2.188.035-2.886.061-2.29.25-4.541.565-6.754a98.18 98.18 0 011.184-6.644 68.3 68.3 0 00-1.345 6.829 70.252 70.252 0 00-.658 6.927c-.03.629-.035 1.674 0 3.128.034 1.455.063 2.962.144 4.526a48.63 48.63 0 00.404 4.346c.19 1.334.473 2.2.831 2.598a4.44 4.44 0 01-.577.161c-.19.036-.384.05-.577.04a2.106 2.106 0 01-1.536-.698 6.875 6.875 0 01-.987-1.431 6.179 6.179 0 01-.49-2.107 52.874 52.874 0 01-.232-3.14 46.201 46.201 0 01-.046-3.192 145.8 145.8 0 01.075-2.401c.058-1.259.168-2.794.335-4.618.168-1.824.404-3.712.722-5.72a62.9 62.9 0 011.281-6.073 34.884 34.884 0 011.98-5.663c.72-1.62 1.667-3.13 2.812-4.485A8.117 8.117 0 0148.574.19c.47-.147.962-.212 1.454-.19a2.073 2.073 0 011.963 1.154c.347.719.508 1.513.468 2.31a12.572 12.572 0 01-.618 3.1 34.106 34.106 0 01-1.328 3.572 48.717 48.717 0 01-1.668 3.498c-.595 1.131-1.155 2.067-1.582 2.805.416-.77.868-1.687 1.357-2.753s.968-2.151 1.437-3.255c.46-1.076.859-2.176 1.195-3.296.293-.962.515-1.944.664-2.939a27.652 27.652 0 01-1.524 4.462 92.14 92.14 0 01-2.344 5.017 113.338 113.338 0 01-2.62 4.906c-.89 1.582-1.732 2.99-2.431 4.22l.127-2.835c.323-.704.87-1.849 1.64-3.434a140.29 140.29 0 002.309-5.016 122.742 122.742 0 002.118-4.93c.47-.991.801-2.042.987-3.123a.329.329 0 00-.357-.392 1.12 1.12 0 00-.75.271c-.257.193-.5.403-.728.63-.24.241-.453.508-.635.796-.18.289-.318.514-.41.675a25.486 25.486 0 00-2.142 4.803 58.603 58.603 0 00-1.576 5.616 61.415 61.415 0 00-1.04 5.801 60.752 60.752 0 00-.484 5.288 7.817 7.817 0 010-1.045c0-.358.029-.704.046-1.045.17-3.444.619-6.868 1.34-10.24a46.71 46.71 0 013.157-9.813 17.964 17.964 0 00-2.292 5.005 54.541 54.541 0 00-1.524 6.413 101.86 101.86 0 00-.923 6.655c-.225 2.2-.376 4.081-.445 5.634a39.68 39.68 0 00.035 4.145c.088 1.373.208 2.738.358 4.092a.398.398 0 00.075-.254 37.15 37.15 0 01.739-3.885c.359-1.53.871-3.022 1.53-4.45a13.125 13.125 0 012.436-3.648 4.45 4.45 0 013.539-1.426 3.84 3.84 0 011.806.525 4.447 4.447 0 00-1.622-.386 3.84 3.84 0 00-2.92 1.068 8.866 8.866 0 00-1.917 2.568 8.602 8.602 0 011.79-1.847 3.591 3.591 0 012.43-.773 2.31 2.31 0 011.685.721c.416.462.717 1.016.878 1.616.184.653.293 1.326.323 2.003 0 .699.035 1.3 0 1.801-.047 1.1-.18 2.194-.398 3.273a18.84 18.84 0 01-.895 3.117 24.056 24.056 0 003.135-3.654 19.77 19.77 0 002.274-4.26zm-16.1 12.301a5.577 5.577 0 01-1.115-2.309 21.661 21.661 0 01-.577-3.25 36.679 36.679 0 01-.196-3.388l-.03-2.776c0 .254-.034.513-.069.79-.034.26-.056.523-.063.786a40.903 40.903 0 000 4.202c.083 1.406.373 2.793.86 4.115a6.968 6.968 0 01-.693-2.464 39.508 39.508 0 01-.329-3.649 86.985 86.985 0 01-.115-3.763c-.012-1.2 0-2.142.035-2.811 0 .63-.058 1.495-.087 2.586a60.984 60.984 0 000 3.411c.035 1.178.058 2.31.133 3.325.04.807.171 1.607.392 2.384.177.551.413 1.082.705 1.582.28.495.673.916 1.148 1.23zM50.45 3.065a11.447 11.447 0 01-.803 3.054 83.966 83.966 0 01-1.731 4.312c-.65 1.504-1.315 2.95-1.992 4.335a529.48 529.48 0 01-1.565 3.186 195.931 195.931 0 001.865-3.648 88.989 88.989 0 001.732-3.712 231.55 231.55 0 01-1.276 3.042c-.427.993-.866 1.98-1.333 2.973a10.47 10.47 0 001.096-1.945 94.2 94.2 0 001.438-3.123c.49-1.114.952-2.205 1.38-3.256.427-1.05.756-1.835.987-2.309a28.5 28.5 0 01-1.27 3.7 91.513 91.513 0 01-1.732 3.902 240.966 240.966 0 01-1.911 3.868 88.542 88.542 0 00-1.732 3.585c.271-.491.64-1.155 1.097-2.032l1.524-2.887c.547-1.05 1.09-2.141 1.628-3.272a121.041 121.041 0 001.507-3.285 37.82 37.82 0 001.154-2.857c.243-.633.4-1.295.468-1.968a2.685 2.685 0 00-.196-1.213 6.669 6.669 0 01-.289 1.507 20.706 20.706 0 01-.618 1.732 23.85 23.85 0 01-.767 1.702 18.087 18.087 0 01-.762 1.386c.473-1.074.94-2.16 1.414-3.256a9.94 9.94 0 00.785-3.463l-.098-.058zm1.732 26.928a11.29 11.29 0 00-.052-1.645 6.123 6.123 0 00-.375-1.53c.103.468.184.947.248 1.432.063.472.085.95.063 1.425a14.86 14.86 0 01-.375 2.73 73.196 73.196 0 01-.687 2.72c.162-.751.318-1.501.48-2.252.162-.76.26-1.532.294-2.309v-1.327a6.564 6.564 0 00-.197-1.276c.031.343.048.672.052.987v.976a25.708 25.708 0 01-1.154 6.24 21.933 21.933 0 01-2.627 5.772 24.147 24.147 0 002.078-4.774 20.23 20.23 0 00.872-5.149c-.115.716-.23 1.391-.34 2.038a18.08 18.08 0 01-.468 1.974l.329-1.732c.108-.572.177-1.15.208-1.731v-.381a35.751 35.751 0 01-1.068 4.912 25.137 25.137 0 01-1.882 4.618 10.07 10.07 0 001.316-2.46 19.686 19.686 0 01-2.684 4.994 15.711 15.711 0 002.245-2.962 28.59 28.59 0 001.876-3.677c.534-1.27.961-2.583 1.276-3.925a20 20 0 00.549-3.665l.023-.023zm-2.996 8.583c-.099.248-.19.48-.29.687l.29-.687zm.138-.37l-.138.37a.865.865 0 01.138-.37zm.139-.184l-.075.185a.262.262 0 01.075-.185z" fill="#1C190F"/><path d="M70.852 34.83c.141.182.229.4.254.63a.826.826 0 01-.445.761 3.491 3.491 0 01-1.01.375 5.19 5.19 0 01-1.155.127h-.912a17.096 17.096 0 01-.381 3.464 12.523 12.523 0 01-1.218 3.405 7.65 7.65 0 01-2.24 2.586 5.514 5.514 0 01-3.325 1.01 5.998 5.998 0 01-2.31-.444c.672.2 1.367.307 2.067.318a5.323 5.323 0 002.887-.82 6.835 6.835 0 002.17-2.257 5.08 5.08 0 01-4.335 2.147 4.914 4.914 0 01-2.887-.762 5.531 5.531 0 01-1.731-1.985 8.831 8.831 0 01-.913-2.685 17.6 17.6 0 01-.248-2.886 24.31 24.31 0 01.41-4.196c.26-1.495.716-2.948 1.357-4.324a9.957 9.957 0 012.528-3.382 5.906 5.906 0 013.978-1.357h.502c.177.003.35.047.508.127a3.127 3.127 0 00-.698-.063 5.935 5.935 0 00-3.568 1.073 8.895 8.895 0 00-2.46 2.748 14.186 14.186 0 00-1.483 3.596 19.664 19.664 0 00-.63 3.631c.209-.885.513-1.905.913-3.06a16.734 16.734 0 011.547-3.284 10.442 10.442 0 012.24-2.62 4.572 4.572 0 013.002-1.074 3.886 3.886 0 012.546.924 3.077 3.077 0 011.154 2.47 3.951 3.951 0 01-.092.727c-.064.312-.202.474-.41.474h-.508a2.132 2.132 0 01-.502-.064c.049-.188.07-.383.063-.577a4.282 4.282 0 00-.352-1.576 1.241 1.241 0 00-1.258-.877 1.921 1.921 0 00-1.45.848 10.797 10.797 0 00-1.264 1.992 16.38 16.38 0 00-.946 2.309 81.677 81.677 0 01-.578 1.731 16.984 16.984 0 00-.692 4.734c.002.474.033.949.092 1.42.06.514.165 1.021.312 1.518.153.481.374.938.658 1.356.25.404.605.73 1.027.947-.14.05-.29.072-.438.063a1.732 1.732 0 01-1.155-.41 3.614 3.614 0 01-.78-.98 7.386 7.386 0 01-.53-1.23 6.343 6.343 0 01-.283-1.155c.08.842.29 1.665.623 2.442a3.147 3.147 0 001.778 1.732 2.599 2.599 0 01-1.397-.78 4.284 4.284 0 01-.849-1.327 5.862 5.862 0 01-.404-1.576 13.693 13.693 0 01-.092-1.576 20.727 20.727 0 01.375-3.977c.254-1.304.57-2.59.947-3.856a23.926 23.926 0 00-1.299 3.856 16.447 16.447 0 00-.537 3.977 8.27 8.27 0 00.63 3.215 4.042 4.042 0 002.309 2.211c.417.193.868.3 1.328.318a2.534 2.534 0 002.112-1.063 7.613 7.613 0 001.253-2.441c.286-.941.48-1.908.577-2.886.098-.807.151-1.618.162-2.43a1.397 1.397 0 01-.664-.82 5.159 5.159 0 01-.098-1.074c.006-.636.06-1.27.162-1.899a3.902 3.902 0 01.658-1.732 2.05 2.05 0 011.045-.254.952.952 0 01.981.89c.168.56.242 1.146.22 1.731 0 .612-.035 1.19-.035 1.732a3.464 3.464 0 001.582.317c.54.01 1.079-.048 1.605-.173zm-13.007 4.999v-.831c-.007-1.558.187-3.11.577-4.618a29.81 29.81 0 011.53-4.416 15.172 15.172 0 00-1.622 4.196 19.346 19.346 0 00-.577 4.45v.578c.008.216.04.431.092.64zm2.72 4.67a.346.346 0 01-.255-.064c.075.05.166.068.254.052v.012zm37.645 1.339c.304-.113.576-.3.79-.543.282-.287.54-.596.774-.923.225-.326.418-.672.577-1.034.168-.358.295-.67.393-.935a3.782 3.782 0 01-1.27 2.702c-.7.75-1.63 1.245-2.644 1.408a1.808 1.808 0 01-.393-.046 2.303 2.303 0 00-.392-.046 2.004 2.004 0 01-1.322-.82 6.042 6.042 0 01-.918-1.668 17.409 17.409 0 01-.877-3.561 22.952 22.952 0 01-.18-3.14c0-1.04.012-2.073.035-3.1-.07.438-.214 1.062-.433 1.876-.22.813-.473 1.633-.774 2.459a15.73 15.73 0 01-1.021 2.262c-.24.541-.645.993-1.155 1.293a4.898 4.898 0 01-.427.15c-.143.045-.29.074-.439.087a3.88 3.88 0 01-2.211-.421 2.17 2.17 0 01-1.305-1.732 16.39 16.39 0 01.145-4.45 18.725 18.725 0 011.431-4.86 14.138 14.138 0 012.679-4.041 6.31 6.31 0 013.885-1.986c.296-.03.594-.03.89 0 .3.004.587.12.807.323a3.025 3.025 0 00-1.553-.202 3.275 3.275 0 00-1.044.306c-.324.15-.641.318-.959.496a9.323 9.323 0 00-3.348 2.985 13.274 13.274 0 00-2.015 5.247c-.055.37-.055.745 0 1.114a22.1 22.1 0 01.814-2.886c.364-1.007.83-1.975 1.391-2.887a9.178 9.178 0 012.027-2.349 5.236 5.236 0 012.748-1.154 4.254 4.254 0 012.834.502 3.282 3.282 0 011.363 2.534.981.981 0 01-.075.647.859.859 0 01-.635.27c-.422.053-.641-.086-.659-.426a10.39 10.39 0 00-.08-.884 1.732 1.732 0 00-.578-1.154 1.564 1.564 0 00-1.252-.318c-.709.085-1.395.69-2.061 1.813a20.317 20.317 0 00-1.732 3.81 41.457 41.457 0 00-1.19 4.225c-.253.999-.414 2.02-.479 3.048l-.046-.375a7.177 7.177 0 01.11-2.176c.15-.826.34-1.669.577-2.523.226-.842.494-1.672.803-2.488.3-.802.577-1.512.785-2.13a16.285 16.285 0 00-.964 2.217c-.272.756-.543 1.512-.832 2.268.196-.5.366-1.011.508-1.53.145-.525.295-1.05.44-1.581a24.022 24.022 0 00-1.802 6.973c-.048-1.04.047-2.08.283-3.094.23-1.004.456-2.003.67-3.007a12.311 12.311 0 00-.705 2.505c-.144.866-.288 1.731-.439 2.597a2.568 2.568 0 00-.069.964c.023.508.046.866.07 1.074.04.211.13.41.265.577a.578.578 0 00.543.283c.207 0 .52-.48.94-1.357a38.05 38.05 0 001.26-2.99c.42-1.114.778-2.187 1.067-3.22a7.12 7.12 0 00.375-1.986.306.306 0 01.185-.312c.155-.087.323-.149.497-.185l.577-.138.41-.08c1.23-.157 2.038-.064 2.425.27.386.335.646 1.063.785 2.188.171 1.365.237 2.74.196 4.116l-.121 4.087c-.03.467-.047.935-.047 1.402-.01.465.016.93.076 1.391 0 .087.04.243.092.468.052.225.115.335.196.323.375-.046.785-.577 1.224-1.68.47-1.215.86-2.461 1.166-3.728.349-1.29.621-2.599.814-3.92.166-.8.215-1.621.144-2.436.269-.028.541-.009.803.058a.578.578 0 01.479.577c.078.966.017 1.938-.179 2.886a32.237 32.237 0 01-.906 3.74 31.407 31.407 0 01-1.328 3.632 6.971 6.971 0 01-1.49 2.349zm-1.224-1.882a1.154 1.154 0 01-.202-.606 41.311 41.311 0 00-.087-.693 27.706 27.706 0 01-.144-5.483 27.706 27.706 0 00-.145-5.484 2.039 2.039 0 00-.132-.577.41.41 0 010 .196.485.485 0 000 .19c.029.93.052 1.836.052 2.73 0 .895 0 1.802-.07 2.743-.046.64-.104 1.298-.167 1.962a8.88 8.88 0 000 1.997v.19a15.071 15.071 0 01-.139-3.642 17.517 17.517 0 00-.075-3.648 85.824 85.824 0 00-.121 3.58 25.3 25.3 0 00.19 3.601l.099.75c.041.337.103.67.184 1 .08.315.195.62.341.911a.664.664 0 00.531.439l-.115-.156zm3.971-6.927a.923.923 0 00-.109-.37 54.75 54.75 0 01-.82 3.637 15.84 15.84 0 01-1.35 3.464 9.31 9.31 0 001.344-2.713c.324-1.016.612-1.986.878-2.886-.087.306-.208.854-.364 1.633a19.078 19.078 0 01-.635 2.338 8.132 8.132 0 01-.958 1.997c-.376.577-.803.762-1.293.577a.79.79 0 00.577.122c.375-.047.745-.416 1.102-1.097.387-.735.695-1.51.918-2.309.246-.85.439-1.713.578-2.586a7.816 7.816 0 00.104-1.8l.028-.007z" fill="#1C190F"/><path d="M117.289 33.883c-.756.381-1.495.768-2.211 1.155-.725.404-1.421.857-2.084 1.356.087.843.139 1.732.162 2.586.023.855.029 1.732.029 2.592a71.4 71.4 0 01-.22 5.616 33.562 33.562 0 01-.918 5.553 10.565 10.565 0 01-1.206 3.048A5.92 5.92 0 01108.503 58a6.145 6.145 0 001.801-1.795c.482-.75.869-1.557 1.154-2.401.293-.864.515-1.75.664-2.65.14-.845.214-1.7.22-2.557a20.396 20.396 0 01-.63 2.805 11.989 11.989 0 01-1.2 2.748 6.806 6.806 0 01-1.928 2.084 4.622 4.622 0 01-2.748.82 4.242 4.242 0 01-2.206-.578 5.11 5.11 0 01-1.581-1.483 6.942 6.942 0 01-.947-2.02 8.195 8.195 0 01-.312-2.24 10.82 10.82 0 01.375-2.684c.26-1.01.609-1.992 1.045-2.938a18.85 18.85 0 011.484-2.685 8.43 8.43 0 011.766-1.985 9.84 9.84 0 00-1.391 1.83 34.451 34.451 0 00-1.322 2.366 14.278 14.278 0 00-1.01 2.494 7.803 7.803 0 00-.381 2.21 11.29 11.29 0 011.125-3.376 26.898 26.898 0 012.038-3.377 36.478 36.478 0 012.477-3.129 31.235 31.235 0 012.528-2.516 64.46 64.46 0 00-.098-3.596c-.065-1.182-.138-2.38-.219-3.597-.246.716-.57 1.578-.97 2.586a40.49 40.49 0 01-1.351 3.03 26.758 26.758 0 01-1.628 2.84 9.8 9.8 0 01-1.691 2.021c-.173.04-.318.075-.445.093a2.615 2.615 0 01-1.974-.474 3.012 3.012 0 01-.97-1.258l-.156-.346a.996.996 0 01-.098-.353c.046-1.687.302-3.363.762-4.987a25.595 25.595 0 012.177-5.622 17.606 17.606 0 013.411-4.572 6.294 6.294 0 014.451-1.899c.288.001.574.044.849.127.288.093.541.27.727.508a1.471 1.471 0 00-.664-.317 4.206 4.206 0 00-.727-.064 4.27 4.27 0 00-1.195.162c-.371.1-.73.238-1.074.41a7.984 7.984 0 00-2.338 1.512 13.71 13.71 0 00-1.813 2.118 18.691 18.691 0 00-1.472 2.442 23.67 23.67 0 00-1.073 2.557 38.6 38.6 0 00-.474 1.391 4.62 4.62 0 00-.219 1.386 25.443 25.443 0 011.154-3.464 20.426 20.426 0 011.94-3.602 12.827 12.827 0 012.621-2.886 5.157 5.157 0 013.296-1.2c2.44 0 3.66 1.242 3.66 3.728a3.511 3.511 0 01-.028.41 2.549 2.549 0 000 .41.97.97 0 01-.826.439c-.421 0-.606-.196-.577-.577.029-.381.063-.722.063-.976a2.84 2.84 0 00-.346-1.391 1.3 1.3 0 00-1.235-.63 2.353 2.353 0 00-1.605.884 12.002 12.002 0 00-1.675 2.274c-.586 1-1.114 2.033-1.581 3.094a64.19 64.19 0 00-1.357 3.313 39.098 39.098 0 00-.976 2.933 11.919 11.919 0 00-.444 2.02v-.185a8.387 8.387 0 01.317-2.147c.208-.802.462-1.61.757-2.43.294-.82.612-1.61.946-2.367.335-.756.63-1.454.884-2.083a28.68 28.68 0 00-1.547 3.376 57.107 57.107 0 00-1.23 3.568 6.75 6.75 0 01.444-2.119c.289-.862.645-1.766 1.068-2.713.424-.947.839-1.849 1.247-2.707a38.9 38.9 0 011.074-2.02 27.048 27.048 0 00-1.328 2.4 45.018 45.018 0 00-1.42 3.158 45.667 45.667 0 00-1.154 3.216 9.419 9.419 0 00-.48 2.591c.011.16.032.318.064.474.04.23.15.346.317.346.295 0 .728-.485 1.294-1.449a39.966 39.966 0 001.732-3.319 70.468 70.468 0 001.576-3.596c.461-1.16.762-1.928.889-2.309a1.954 1.954 0 01-.191-.883 1.74 1.74 0 01.883-1.518 89.58 89.58 0 011.547 7.763c.392 2.612.585 5.25.578 7.891a40.213 40.213 0 01-.254 4.456 142.55 142.55 0 01-.578 4.45c.337-1.393.589-2.806.757-4.23.168-1.426.253-2.86.254-4.295a60.797 60.797 0 00-.318-6.153 106.843 106.843 0 00-.82-6.096c.502 2.091.87 4.212 1.103 6.35.231 2.14.346 4.29.346 6.442 0 1.343-.051 2.678-.155 4.006a37.627 37.627 0 01-.537 4.04 32.59 32.59 0 00.819-7.325c0-1.224-.021-2.528-.063-3.913a94.123 94.123 0 00-.219-4.203 43.541 43.541 0 00-.508-4.133 28.285 28.285 0 00-.913-3.786 37.384 37.384 0 011.548 8.3c.192 2.76.286 5.59.282 8.491a41.68 41.68 0 00.191-4.04 56.553 56.553 0 00-.445-7.1 54.703 54.703 0 00-1.322-6.927 6.85 6.85 0 01.722 1.801c.231.82.433 1.691.577 2.62.145.93.318 1.83.445 2.714.127.883.208 1.576.254 2.084a15.432 15.432 0 011.668-1.05c.358-.197.699-.353 1.011-.503a1.98 1.98 0 01.727-.22c.55 0 .856.116.918.347.108.323.174.658.196.998zm-12.452 20.203a1.838 1.838 0 001.466-.912 9.462 9.462 0 001.155-2.309 25.31 25.31 0 00.871-3.093c.249-1.155.457-2.252.624-3.343.167-1.09.283-2.083.346-2.967.064-.883.116-1.535.156-1.956a31.255 31.255 0 00-4.041 5.489 18.425 18.425 0 00-1.472 3.221 9.718 9.718 0 00-.577 3.157c.002.265.023.53.063.791.05.322.136.638.254.941.09.271.238.52.433.727a.974.974 0 00.722.254zm16.482-.363c0 .034.115.121.115.121l-.225-.242s.115.08.11.12z" fill="#1C190F"/><path d="M147.534 21.415c-.693-2.251-1.605-4.444-2.546-6.713a49.077 49.077 0 00-2.921-5.634c-1.039-1.899-1.871-4.294-3.493-4.283-2.604 0-2.823-.866-4.584.04-2.147 1.103-3.856 3.123-5.484 5.871-1.501 2.58-3.14 4.462-4.693 7.198-1.467 2.552-2.956 4.924-4.267 7.302-1.241 2.269-2.944 6.09-2.944 6.09a67.42 67.42 0 012.65-7.25c1.27-2.655 2.783-5.247 4.255-7.92 1.576-2.84 3.232-4.947 4.832-7.7 1.483-2.563 3.798-5.12 6.927-5.616a13.452 13.452 0 014.717.38c-.797-.161-1.548-.79-2.408-.958a7.308 7.308 0 00-2.788 0 8.207 8.207 0 00-4.509 2.396c-1.732 1.997-3.169 4.548-4.658 7.371-1.398 2.638-2.974 4.49-4.388 7.013-1.339 2.396-2.644 4.618-3.7 6.962a30.513 30.513 0 00-2.165 6.072 19.736 19.736 0 00-.393 5.034c.101 2.002.49 3.979 1.155 5.87a22.382 22.382 0 003.371 6.223 16.48 16.48 0 006.553 5.195c3.89 1.731 7.504 1.339 10.391-.52 3.042-1.968 5.444-5.05 7.101-8.485a31.867 31.867 0 003.088-11.181 88.09 88.09 0 00-.087-10.148c.545 2.389.931 4.81 1.155 7.25a31.27 31.27 0 01-.704 8.514 32.818 32.818 0 01-3.25 8.515 17.325 17.325 0 01-5.623 6.35 13.194 13.194 0 01-8.452 2.181c-2.852-.26-8.255-2.996-8.255-2.996a34.3 34.3 0 003.764 2.43 13.569 13.569 0 008.752 1.322 14.255 14.255 0 007.181-4.04 24.747 24.747 0 004.942-7.29 32.327 32.327 0 002.546-8.532 48.31 48.31 0 00.34-8.364 30.427 30.427 0 00-1.408-7.949zm-7.944 13.986a28.287 28.287 0 01-2.996 11.545 11.075 11.075 0 01-2.962 3.78c-2.378 1.808-5.132 1.352-7.707.203-4.358-1.951-7.377-6.829-7.891-11.308a18.615 18.615 0 011.408-8.9c2.442-6.189 7.829-11.39 10.45-17.537.386-.924 1.304-2.782 3.371-2.886 1.155-.07 2.852-.364 3.516 2.309.843 3.463 1.154 6.99 1.824 10.476a52.666 52.666 0 011.045 11.418c-.029.306-.041.606-.058.9zm6.183-1.881a37.243 37.243 0 01-1.189 6.961c-.578 2.2-2.598 5.605-2.598 5.605s.768-2.372 1.154-3.463a34.976 34.976 0 001.051-3.545 42.96 42.96 0 00.866-8.658c.06-2.867-.219-5.73-.831-8.532a49.978 49.978 0 00-1.478-5.073 44.552 44.552 0 00-1.917-4.428 24.283 24.283 0 00-2.367-4.312c-.854-1.206-3.007-2.09-3.007-2.09s2.447.486 3.388 1.45a14.743 14.743 0 012.523 3.74 26.735 26.735 0 011.911 4.283c.577 1.79 1.155 3.62 1.57 5.49.446 1.9.764 3.829.953 5.772a39.898 39.898 0 01-.029 6.8z" fill="#045F01"/><path d="M123.668 33.439a21.751 21.751 0 014.382-4.814c-2.667 2.886-5.536 7.567-4.855 10.632.733-4.756 2.095-5.835 2.95-7.429a14.287 14.287 0 013.25-3.896 4.232 4.232 0 00-3.002.849 9.65 9.65 0 00-2.58 3.21c-.635 1.234-1.611 2.533-2.223 3.895.267-1.25.688-2.46 1.253-3.607a12.314 12.314 0 012.199-3.314c-.577.508-.889.785-1.466 1.357a8.525 8.525 0 00-1.12 1.587 17.073 17.073 0 00-1.524 2.684c-.733 1.951.167 4.376.144 4.774-1.668-2.234-1.414-3.856.179-6.655 3.06-5.363 6.679-5.98 7.886-5.525 3.002 1.155 5.559 3.025 6.795 6.183a6.927 6.927 0 01-2.309 8.22 8.373 8.373 0 01-7.678 1.2c-7.401-2.846-3.528-7.354-2.281-9.351z" fill="#045F01"/><path d="M86.594 31.118a1.184 1.184 0 00-.577-.242c-.202 0-.312.052-.323.202-.038.23-.103.456-.197.67-.08.219-.167.444-.265.663-.098.22-.231.624-.387 1.091-.16.472-.367.926-.618 1.357a5.77 5.77 0 01-.802 1.097 1.19 1.19 0 01-.854.236 1.552 1.552 0 01-1.04-.773 11.437 11.437 0 01-.906-1.645 16.282 16.282 0 01-.698-1.853c-.185-.612-.306-1.062-.358-1.345.288-.202.687-.474 1.2-.814a16.722 16.722 0 001.536-1.12c.477-.384.923-.805 1.334-1.258.318-.317.54-.717.64-1.155a.959.959 0 00-.496-.889 2.194 2.194 0 00-1.016-.479.702.702 0 00-.266 0 7.325 7.325 0 00-2.62 2.072 20.365 20.365 0 00-2.217 3.25 27.7 27.7 0 00-1.675 3.608 16.628 16.628 0 00-.877 3.152 37.082 37.082 0 01-.046-3.106 35.55 35.55 0 01.208-3.076s.386-3.799 1.016-7.383a2.557 2.557 0 00-.578-1.045 44.445 44.445 0 00-.398 1.784c-.41 1.985-.883 4.912-.883 4.912s.439-3.262.808-4.86c.144-.63.265-1.265.416-1.9.057-.242-.07-.352-.127-.098-.185.809-.376 1.617-.578 2.413a44.476 44.476 0 00-.889 5.357 55.006 55.006 0 00-.156 1.812c-.04.59-.092 1.824-.092 1.824s.058-1.945.11-2.886c.052-.94.132-1.899.23-2.886.122-1.154.324-2.505.578-4.11.104-.577.22-1.154.346-1.76.047-.22-.86-.156-.975-.133-1.155.26-1.732 1.732-2.027 2.753a21.667 21.667 0 00-.837 4.104c-.075.82-.179 1.259-.242 2.61 0 .346 0 .704-.035 1.056a28.473 28.473 0 01.277-4.474c.34-3.007 1.565-6.655 3.632-8.75a8.445 8.445 0 00-2.42 2.886 15.41 15.41 0 00-1.38 3.92 23.565 23.565 0 00-.519 4.501 55.408 55.408 0 00.087 4.618c.098 1.524.254 2.967.479 4.341.046.271.087.531.133.785.107.789.3 1.563.577 2.309.146.29.324.563.531.814.25.245.585.383.935.387a3.25 3.25 0 001.265-.145c.412-.122.809-.29 1.183-.502a.997.997 0 01-.07-.479c.151-1.337.377-2.665.676-3.977.312-1.328.653-2.638 1.005-3.943.146.547.34 1.08.577 1.594.25.564.554 1.103.906 1.61.347.485.768.911 1.247 1.264a3.463 3.463 0 001.64.64c.713.102 1.44.007 2.101-.276.158-.057.312-.122.462-.196v-.15l-.364.196a3.244 3.244 0 01-1.882.323 3.558 3.558 0 01-2.678-1.668c.316.366.69.678 1.108.923.41.255.868.42 1.345.485a2.262 2.262 0 001.802-.577c.266-.21.517-.44.75-.687v-.08c.194-.264.37-.54.525-.826.373-.671.68-1.377.918-2.107.237-.722.433-1.31.578-1.732.103-.3.202-.577.282-.837.084-.276.136-.56.156-.848a.576.576 0 00-.23-.549zM74.16 42.138a5.467 5.467 0 01-.421-1.282 7.981 7.981 0 01-.173-1.373 8.895 8.895 0 010-1.155c0 .237.052.577.092.924.04.346.098.761.168 1.154.063.378.148.752.254 1.12.072.278.18.546.323.796a17.25 17.25 0 01-.6-3.648 21.889 21.889 0 01.074-3.74c0 .433 0 1.033.064 1.807.064.773.104 1.552.162 2.343.059.763.157 1.522.294 2.274a7.51 7.51 0 00.445 1.64 2.13 2.13 0 01-.682-.86zm8.66-3.18c-.374.168-.788.23-1.195.178a3.083 3.083 0 01-1.674-.756 6.078 6.078 0 01-1.276-1.564 8.015 8.015 0 01-.797-1.888 4.777 4.777 0 01-.19-1.731c.207.974.463 1.937.767 2.886a4.767 4.767 0 001.958 2.378 6.101 6.101 0 01-1.9-2.875 16.018 16.018 0 01-.612-3.348c.075.485.197 1.086.37 1.819.17.717.407 1.417.71 2.09a6.925 6.925 0 001.154 1.73c.42.483 1 .793 1.634.872a2.394 2.394 0 001.917-.577 1.985 1.985 0 01-.878.756l.012.03zM68.889 10.667l-1.484 1.409v3.059h-1.593V5.449h1.616v4.618l4.873-4.618h2.107l-4.44 4.19 4.769 5.496h-1.998l-3.85-4.468zm14.322 1.795h-4.208l-1.155 2.673h-1.732l4.226-9.686h1.57l4.244 9.686h-1.767l-1.178-2.673zm-.577-1.281l-1.53-3.752-1.553 3.752h3.083zm11.771 3.18v1.155h-1.599V14.36c-3.071-.196-5.415-1.552-5.415-4.04s2.361-3.873 5.415-4.081V5.085h1.6V6.24c3.03.208 5.408 1.564 5.408 4.08 0 2.518-2.343 3.845-5.409 4.041zm-1.599-1.316V7.55c-2.176.156-3.758.97-3.758 2.754 0 1.783 1.587 2.591 3.758 2.741zm5.334-2.741c0-1.784-1.587-2.598-3.758-2.754v5.495c2.176-.15 3.758-.923 3.758-2.741zm11.852 3.503v1.328h-7.811V5.449h7.73v1.316h-6.136v2.886h5.611v1.287h-5.611v2.887l6.217-.018z" fill="#1C190F"/></svg>